<svg width="32" height="32" viewBox="0 0 32 32" fill="none" xmlns="http://www.w3.org/2000/svg">
<path fill-rule="evenodd" clip-rule="evenodd" d="M28 16C28 19.1826 26.7357 22.2348 24.4853 24.4853C22.2348 26.7357 19.1826 28 16 28C12.8174 28 9.76516 26.7357 7.51472 24.4853C5.26428 22.2348 4 19.1826 4 16C4 12.8174 5.26428 9.76516 7.51472 7.51472C9.76516 5.26428 12.8174 4 16 4C19.1826 4 22.2348 5.26428 24.4853 7.51472C26.7357 9.76516 28 12.8174 28 16ZM16.75 10C16.75 9.80109 16.671 9.61032 16.5303 9.46967C16.3897 9.32902 16.1989 9.25 16 9.25C15.8011 9.25 15.6103 9.32902 15.4697 9.46967C15.329 9.61032 15.25 9.80109 15.25 10V15.25H10C9.80109 15.25 9.61032 15.329 9.46967 15.4697C9.32902 15.6103 9.25 15.8011 9.25 16C9.25 16.1989 9.32902 16.3897 9.46967 16.5303C9.61032 16.671 9.80109 16.75 10 16.75H15.25V22C15.25 22.1989 15.329 22.3897 15.4697 22.5303C15.6103 22.671 15.8011 22.75 16 22.75C16.1989 22.75 16.3897 22.671 16.5303 22.5303C16.671 22.3897 16.75 22.1989 16.75 22V16.75H22C22.1989 16.75 22.3897 16.671 22.5303 16.5303C22.671 16.3897 22.75 16.1989 22.75 16C22.75 15.8011 22.671 15.6103 22.5303 15.4697C22.3897 15.329 22.1989 15.25 22 15.25H16.75V10Z" fill="#7065F0"/>
</svg>
