<svg width="20" height="20" viewBox="0 0 20 20" fill="none" xmlns="http://www.w3.org/2000/svg">
<g clip-path="url(#clip0_31_6828)">
<path d="M4.99992 17.5001C5.92039 17.5001 6.66659 16.7539 6.66659 15.8334C6.66659 14.9129 5.92039 14.1667 4.99992 14.1667C4.07944 14.1667 3.33325 14.9129 3.33325 15.8334C3.33325 16.7539 4.07944 17.5001 4.99992 17.5001Z" stroke="#9600CC" stroke-width="2" stroke-linecap="round" stroke-linejoin="round"/>
<path d="M14.1667 17.5001C15.0871 17.5001 15.8333 16.7539 15.8333 15.8334C15.8333 14.9129 15.0871 14.1667 14.1667 14.1667C13.2462 14.1667 12.5 14.9129 12.5 15.8334C12.5 16.7539 13.2462 17.5001 14.1667 17.5001Z" stroke="#9600CC" stroke-width="2" stroke-linecap="round" stroke-linejoin="round"/>
<path d="M14.1666 14.1667H4.99992V2.5H3.33325" stroke="#9600CC" stroke-width="2" stroke-linecap="round" stroke-linejoin="round"/>
<path d="M5 4.16675L16.6667 5.00008L15.8333 10.8334H5" stroke="#9600CC" stroke-width="2" stroke-linecap="round" stroke-linejoin="round"/>
</g>
<defs>
<clipPath id="clip0_31_6828">
<rect width="20" height="20" fill="white"/>
</clipPath>
</defs>
</svg>
