<svg width="20" height="20" viewBox="0 0 20 20" fill="none" xmlns="http://www.w3.org/2000/svg">
<g opacity="0.4">
<path d="M8.75008 16.5833V3.41663C8.75008 2.16663 8.21675 1.66663 6.89175 1.66663H3.52508C2.20008 1.66663 1.66675 2.16663 1.66675 3.41663V16.5833C1.66675 17.8333 2.20008 18.3333 3.52508 18.3333H6.89175C8.21675 18.3333 8.75008 17.8333 8.75008 16.5833Z" stroke="#100A55" stroke-width="2" stroke-linecap="round" stroke-linejoin="round"/>
<path d="M18.3333 7.09996V3.31663C18.3333 2.14163 17.8 1.66663 16.475 1.66663H13.1083C11.7833 1.66663 11.25 2.14163 11.25 3.31663V7.09163C11.25 8.27496 11.7833 8.74163 13.1083 8.74163H16.475C17.8 8.74996 18.3333 8.27496 18.3333 7.09996Z" stroke="#100A55" stroke-width="2" stroke-linecap="round" stroke-linejoin="round"/>
<path d="M18.3333 16.475V13.1083C18.3333 11.7833 17.8 11.25 16.475 11.25H13.1083C11.7833 11.25 11.25 11.7833 11.25 13.1083V16.475C11.25 17.8 11.7833 18.3333 13.1083 18.3333H16.475C17.8 18.3333 18.3333 17.8 18.3333 16.475Z" stroke="#100A55" stroke-width="2" stroke-linecap="round" stroke-linejoin="round"/>
</g>
</svg>
