<svg width="96" height="40" viewBox="0 0 96 40" fill="none" xmlns="http://www.w3.org/2000/svg">
<g opacity="0.5" clip-path="url(#clip0_31_6733)">
<path d="M18 13H14C13.4477 13 13 13.4477 13 14V18C13 18.5523 13.4477 19 14 19H18C18.5523 19 19 18.5523 19 18V14C19 13.4477 18.5523 13 18 13Z" fill="#100A55"/>
<path d="M26 13H22C21.4477 13 21 13.4477 21 14V18C21 18.5523 21.4477 19 22 19H26C26.5523 19 27 18.5523 27 18V14C27 13.4477 26.5523 13 26 13Z" fill="#100A55"/>
<path d="M18 21H14C13.4477 21 13 21.4477 13 22V26C13 26.5523 13.4477 27 14 27H18C18.5523 27 19 26.5523 19 26V22C19 21.4477 18.5523 21 18 21Z" fill="#100A55"/>
<path d="M26 21H22C21.4477 21 21 21.4477 21 22V26C21 26.5523 21.4477 27 22 27H26C26.5523 27 27 26.5523 27 26V22C27 21.4477 26.5523 21 26 21Z" fill="#100A55"/>
</g>
<rect x="56.75" y="0.75" width="38.5" height="38.5" rx="7.25" fill="white" stroke="#E0DEF7" stroke-width="1.5"/>
<g clip-path="url(#clip1_31_6733)">
<path d="M82 14H70C68.8954 14 68 14.597 68 15.3333V16.6667C68 17.403 68.8954 18 70 18H82C83.1046 18 84 17.403 84 16.6667V15.3333C84 14.597 83.1046 14 82 14Z" fill="#7065F0"/>
<path d="M82 22H70C68.8954 22 68 22.597 68 23.3333V24.6667C68 25.403 68.8954 26 70 26H82C83.1046 26 84 25.403 84 24.6667V23.3333C84 22.597 83.1046 22 82 22Z" fill="#7065F0"/>
</g>
<defs>
<clipPath id="clip0_31_6733">
<rect width="24" height="24" fill="white" transform="translate(8 8)"/>
</clipPath>
<clipPath id="clip1_31_6733">
<rect width="24" height="24" fill="white" transform="translate(64 8)"/>
</clipPath>
</defs>
</svg>
