<svg width="63" height="25" viewBox="0 0 63 53" fill="none" xmlns="http://www.w3.org/2000/svg">
<path d="M0 0.397949H37.1012C51.4047 0.397949 63 11.9933 63 26.2968C63 40.6003 51.4047 52.1957 37.1012 52.1957H0V0.397949Z" fill="#5B61E5"/>
<path d="M26.4122 43.2456H19.2122L26.0122 11.4456L33.4122 10.4456L27.4122 38.4956C27.8789 38.8289 28.3455 39.0789 28.8122 39.2456C29.2789 39.4123 29.7622 39.4956 30.2622 39.4956C32.9622 39.4956 35.2289 37.2789 37.0622 32.8456C38.9289 28.3789 39.8622 23.2623 39.8622 17.4956C39.8622 14.3623 39.2455 12.0123 38.0122 10.4456C36.7789 8.8456 34.9622 8.0456 32.5622 8.0456C28.6622 8.0456 25.4955 9.1623 23.0622 11.3956C20.6622 13.5956 19.4622 16.5289 19.4622 20.1956C19.4622 20.8289 19.4955 21.3789 19.5622 21.8456C19.6622 22.3123 19.8122 22.7623 20.0122 23.1956C20.0789 23.3289 20.1122 23.4289 20.1122 23.4956C20.1455 23.5289 20.1622 23.5623 20.1622 23.5956C18.3622 23.5956 17.0122 23.2123 16.1122 22.4456C15.2455 21.6789 14.8122 20.5123 14.8122 18.9456C14.8122 17.1123 15.3955 15.3289 16.5622 13.5956C17.7622 11.8289 19.3955 10.2956 21.4622 8.99561C23.1622 7.96231 25.0289 7.1623 27.0622 6.5956C29.1289 6.0289 31.2455 5.74561 33.4122 5.74561C37.6789 5.74561 40.9622 7.0289 43.2622 9.5956C45.5956 12.1289 46.7622 15.6456 46.7622 20.1456C46.7622 22.5789 46.4789 25.0456 45.9122 27.5456C45.3455 30.0456 44.5455 32.3789 43.5122 34.5456C42.1455 37.4789 40.5289 39.7789 38.6622 41.4456C36.7955 43.0789 34.8789 43.8956 32.9122 43.8956C31.9122 43.8956 30.8955 43.6789 29.8622 43.2456C28.8622 42.7789 27.8455 42.1123 26.8122 41.2456L26.4122 43.2456Z" fill="#ABAEF2"/>
</svg>
