<svg width="64" height="64" viewBox="0 0 64 64" fill="none" xmlns="http://www.w3.org/2000/svg">
<path d="M46.9 2L41 6L35 2L29 6L23 2L17 6L11 2V56L17.1 62L23.1 58L29.1 62L35.1 58L41.1 62L47.1 58L53.1 62V8L46.9 2ZM31 46H19C18.4696 46 17.9609 45.7893 17.5858 45.4142C17.2107 45.0391 17 44.5304 17 44C17 43.4696 17.2107 42.9609 17.5858 42.5858C17.9609 42.2107 18.4696 42 19 42H31C31.5304 42 32.0391 42.2107 32.4142 42.5858C32.7893 42.9609 33 43.4696 33 44C33 44.5304 32.7893 45.0391 32.4142 45.4142C32.0391 45.7893 31.5304 46 31 46ZM35 38H19C18.4696 38 17.9609 37.7893 17.5858 37.4142C17.2107 37.0391 17 36.5304 17 36C17 35.4696 17.2107 34.9609 17.5858 34.5858C17.9609 34.2107 18.4696 34 19 34H35C35.5304 34 36.0391 34.2107 36.4142 34.5858C36.7893 34.9609 37 35.4696 37 36C37 36.5304 36.7893 37.0391 36.4142 37.4142C36.0391 37.7893 35.5304 38 35 38ZM17 28C17 27.4696 17.2107 26.9609 17.5858 26.5858C17.9609 26.2107 18.4696 26 19 26H31C31.5304 26 32.0391 26.2107 32.4142 26.5858C32.7893 26.9609 33 27.4696 33 28C33 28.5304 32.7893 29.0391 32.4142 29.4142C32.0391 29.7893 31.5304 30 31 30H19C18.4696 30 17.9609 29.7893 17.5858 29.4142C17.2107 29.0391 17 28.5304 17 28ZM35 22H19C18.4696 22 17.9609 21.7893 17.5858 21.4142C17.2107 21.0391 17 20.5304 17 20C17 19.4696 17.2107 18.9609 17.5858 18.5858C17.9609 18.2107 18.4696 18 19 18H35C35.5304 18 36.0391 18.2107 36.4142 18.5858C36.7893 18.9609 37 19.4696 37 20C37 20.5304 36.7893 21.0391 36.4142 21.4142C36.0391 21.7893 35.5304 22 35 22ZM45 46H43C42.4696 46 41.9609 45.7893 41.5858 45.4142C41.2107 45.0391 41 44.5304 41 44C41 43.4696 41.2107 42.9609 41.5858 42.5858C41.9609 42.2107 42.4696 42 43 42H45C45.5304 42 46.0391 42.2107 46.4142 42.5858C46.7893 42.9609 47 43.4696 47 44C47 44.5304 46.7893 45.0391 46.4142 45.4142C46.0391 45.7893 45.5304 46 45 46ZM45 38H43C42.4696 38 41.9609 37.7893 41.5858 37.4142C41.2107 37.0391 41 36.5304 41 36C41 35.4696 41.2107 34.9609 41.5858 34.5858C41.9609 34.2107 42.4696 34 43 34H45C45.5304 34 46.0391 34.2107 46.4142 34.5858C46.7893 34.9609 47 35.4696 47 36C47 36.5304 46.7893 37.0391 46.4142 37.4142C46.0391 37.7893 45.5304 38 45 38ZM45 30H43C42.4696 30 41.9609 29.7893 41.5858 29.4142C41.2107 29.0391 41 28.5304 41 28C41 27.4696 41.2107 26.9609 41.5858 26.5858C41.9609 26.2107 42.4696 26 43 26H45C45.5304 26 46.0391 26.2107 46.4142 26.5858C46.7893 26.9609 47 27.4696 47 28C47 28.5304 46.7893 29.0391 46.4142 29.4142C46.0391 29.7893 45.5304 30 45 30ZM45 22H43C42.4696 22 41.9609 21.7893 41.5858 21.4142C41.2107 21.0391 41 20.5304 41 20C41 19.4696 41.2107 18.9609 41.5858 18.5858C41.9609 18.2107 42.4696 18 43 18H45C45.5304 18 46.0391 18.2107 46.4142 18.5858C46.7893 18.9609 47 19.4696 47 20C47 20.5304 46.7893 21.0391 46.4142 21.4142C46.0391 21.7893 45.5304 22 45 22Z" fill="#226BD0"/>
</svg>
