<svg width="29" height="31" viewBox="0 0 29 31" fill="none" xmlns="http://www.w3.org/2000/svg">
<path d="M14.5 0.939259C12.3368 0.939259 10.2623 1.82988 8.73266 3.41521C7.20307 5.00053 6.34375 7.15069 6.34375 9.39268C6.35363 9.73867 6.3839 10.0837 6.43437 10.4259C7.11406 17.2825 14.5 21.0866 14.5 29.1173C14.5 21.0866 21.8859 17.2825 22.5656 10.4728C22.7211 9.28209 22.6284 8.07063 22.2939 6.92014C21.9594 5.76964 21.3908 4.70683 20.6264 3.80336C19.8621 2.8999 18.9197 2.17676 17.8629 1.68269C16.8061 1.18863 15.6594 0.935121 14.5 0.939259ZM14.5 12.2105C13.9623 12.2105 13.4366 12.0452 12.9895 11.7356C12.5424 11.426 12.194 10.9859 11.9882 10.471C11.7824 9.95612 11.7286 9.38955 11.8335 8.84295C11.9384 8.29635 12.1973 7.79427 12.5776 7.40019C12.9578 7.00611 13.4422 6.73774 13.9696 6.62902C14.497 6.52029 15.0436 6.57609 15.5404 6.78936C16.0372 7.00264 16.4618 7.3638 16.7606 7.82719C17.0593 8.29057 17.2187 8.83537 17.2187 9.39268C17.2187 10.14 16.9323 10.8567 16.4224 11.3852C15.9126 11.9136 15.2211 12.2105 14.5 12.2105Z" fill="#4B4FB0"/>
</svg>
