<svg width="20" height="20" viewBox="0 0 20 20" fill="none" xmlns="http://www.w3.org/2000/svg">
<g opacity="0.4">
<path d="M10 12.5C11.3807 12.5 12.5 11.3807 12.5 10C12.5 8.61929 11.3807 7.5 10 7.5C8.61929 7.5 7.5 8.61929 7.5 10C7.5 11.3807 8.61929 12.5 10 12.5Z" stroke="#100A55" stroke-width="2" stroke-miterlimit="10" stroke-linecap="round" stroke-linejoin="round"/>
<path d="M1.66675 10.7334V9.2667C1.66675 8.40003 2.37508 7.68336 3.25008 7.68336C4.75841 7.68336 5.37508 6.6167 4.61675 5.30836C4.18341 4.55836 4.44175 3.58336 5.20008 3.15003L6.64175 2.32503C7.30008 1.93336 8.15008 2.1667 8.54175 2.82503L8.63341 2.98336C9.38341 4.2917 10.6167 4.2917 11.3751 2.98336L11.4667 2.82503C11.8584 2.1667 12.7084 1.93336 13.3667 2.32503L14.8084 3.15003C15.5667 3.58336 15.8251 4.55836 15.3917 5.30836C14.6334 6.6167 15.2501 7.68336 16.7584 7.68336C17.6251 7.68336 18.3417 8.3917 18.3417 9.2667V10.7334C18.3417 11.6 17.6334 12.3167 16.7584 12.3167C15.2501 12.3167 14.6334 13.3834 15.3917 14.6917C15.8251 15.45 15.5667 16.4167 14.8084 16.85L13.3667 17.675C12.7084 18.0667 11.8584 17.8334 11.4667 17.175L11.3751 17.0167C10.6251 15.7084 9.39175 15.7084 8.63341 17.0167L8.54175 17.175C8.15008 17.8334 7.30008 18.0667 6.64175 17.675L5.20008 16.85C4.44175 16.4167 4.18341 15.4417 4.61675 14.6917C5.37508 13.3834 4.75841 12.3167 3.25008 12.3167C2.37508 12.3167 1.66675 11.6 1.66675 10.7334Z" stroke="#100A55" stroke-width="2" stroke-miterlimit="10" stroke-linecap="round" stroke-linejoin="round"/>
</g>
</svg>
