<svg width="16" height="16" viewBox="0 0 16 16" fill="none" xmlns="http://www.w3.org/2000/svg">
<g clip-path="url(#clip0_31_6603)">
<path d="M2.66667 8H13.3333C13.5101 8 13.6797 8.07024 13.8047 8.19526C13.9298 8.32029 14 8.48986 14 8.66667V10.6667C14 11.3739 13.719 12.0522 13.219 12.5523C12.7189 13.0524 12.0406 13.3333 11.3333 13.3333H4.66667C3.95942 13.3333 3.28115 13.0524 2.78105 12.5523C2.28095 12.0522 2 11.3739 2 10.6667V8.66667C2 8.48986 2.07024 8.32029 2.19526 8.19526C2.32029 8.07024 2.48986 8 2.66667 8V8Z" stroke="#7065F0" stroke-width="1.5" stroke-linecap="round" stroke-linejoin="round"/>
<path d="M4 8V3.33333C4 2.97971 4.14048 2.64057 4.39052 2.39052C4.64057 2.14048 4.97971 2 5.33333 2H7.33333V3.5" stroke="#7065F0" stroke-width="1.5" stroke-linecap="round" stroke-linejoin="round"/>
<path d="M2.66675 14L3.33341 13" stroke="#7065F0" stroke-width="1.5" stroke-linecap="round" stroke-linejoin="round"/>
<path d="M13.3334 14L12.6667 13" stroke="#7065F0" stroke-width="1.5" stroke-linecap="round" stroke-linejoin="round"/>
</g>
<defs>
<clipPath id="clip0_31_6603">
<rect width="16" height="16" fill="white"/>
</clipPath>
</defs>
</svg>
