<svg width="20" height="20" viewBox="0 0 20 20" fill="none" xmlns="http://www.w3.org/2000/svg">
<path d="M7.49984 18.3333H12.4998C16.6665 18.3333 18.3332 16.6666 18.3332 12.5V7.49996C18.3332 3.33329 16.6665 1.66663 12.4998 1.66663H7.49984C3.33317 1.66663 1.6665 3.33329 1.6665 7.49996V12.5C1.6665 16.6666 3.33317 18.3333 7.49984 18.3333Z" stroke="#7065F0" stroke-width="2" stroke-linecap="round" stroke-linejoin="round"/>
<path d="M7.5835 9.99987V8.76654C7.5835 7.17487 8.7085 6.5332 10.0835 7.32487L11.1502 7.94154L12.2168 8.5582C13.5918 9.34987 13.5918 10.6499 12.2168 11.4415L11.1502 12.0582L10.0835 12.6749C8.7085 13.4665 7.5835 12.8165 7.5835 11.2332V9.99987Z" stroke="#7065F0" stroke-width="2" stroke-miterlimit="10" stroke-linecap="round" stroke-linejoin="round"/>
</svg>
