<svg width="20" height="20" viewBox="0 0 20 20" fill="none" xmlns="http://www.w3.org/2000/svg">
<path d="M14.1667 2.91663H5.83342C3.33341 2.91663 1.66675 4.16663 1.66675 7.08329V12.9166C1.66675 15.8333 3.33341 17.0833 5.83342 17.0833H14.1667C16.6667 17.0833 18.3334 15.8333 18.3334 12.9166V7.08329C18.3334 4.16663 16.6667 2.91663 14.1667 2.91663ZM14.5584 7.99163L11.9501 10.075C11.4001 10.5166 10.7001 10.7333 10.0001 10.7333C9.30008 10.7333 8.59175 10.5166 8.05008 10.075L5.44175 7.99163C5.17508 7.77496 5.13341 7.37496 5.34175 7.10829C5.55841 6.84163 5.95008 6.79163 6.21675 7.00829L8.82508 9.09163C9.45842 9.59996 10.5334 9.59996 11.1667 9.09163L13.7751 7.00829C14.0417 6.79163 14.4417 6.83329 14.6501 7.10829C14.8667 7.37496 14.8251 7.77496 14.5584 7.99163Z" fill="#7065F0"/>
</svg>
