<svg width="19" height="19" viewBox="0 0 19 19" fill="none" xmlns="http://www.w3.org/2000/svg">
<path d="M5.00452 14.5894H2.84156C1.62861 14.5894 1.01787 13.9787 1.01787 12.7657V2.84156C1.01787 1.62861 1.62861 1.01787 2.84156 1.01787H6.48891C7.70186 1.01787 8.31255 1.62861 8.31255 2.84156V4.41075" stroke="#000929" stroke-width="2" stroke-miterlimit="10" stroke-linecap="round" stroke-linejoin="round"/>
<path d="M14.0553 6.46335V15.9295C14.0553 17.2952 13.3768 17.9822 12.0112 17.9822H7.05752C5.69188 17.9822 5.00484 17.2952 5.00484 15.9295V6.46335C5.00484 5.09771 5.69188 4.41067 7.05752 4.41067H12.0112C13.3768 4.41067 14.0553 5.09771 14.0553 6.46335Z" stroke="#000929" stroke-width="2" stroke-miterlimit="10" stroke-linecap="round" stroke-linejoin="round"/>
<path d="M10.6876 4.41075V2.84156C10.6876 1.62861 11.2983 1.01787 12.5112 1.01787H16.1586C17.3715 1.01787 17.9823 1.62861 17.9823 2.84156V12.7657C17.9823 13.9787 17.3715 14.5894 16.1586 14.5894H14.055" stroke="#000929" stroke-width="2" stroke-miterlimit="10" stroke-linecap="round" stroke-linejoin="round"/>
<path d="M7.80397 8.65186H11.1969" stroke="#000929" stroke-width="2" stroke-miterlimit="10" stroke-linecap="round" stroke-linejoin="round"/>
<path d="M7.80397 11.1965H11.1969" stroke="#000929" stroke-width="2" stroke-miterlimit="10" stroke-linecap="round" stroke-linejoin="round"/>
<path d="M9.50025 17.9821V15.4375" stroke="#000929" stroke-width="2" stroke-miterlimit="10" stroke-linecap="round" stroke-linejoin="round"/>
</svg>
