<svg width="20" height="20" viewBox="0 0 20 20" fill="none" xmlns="http://www.w3.org/2000/svg">
<g clip-path="url(#clip0_13_100)">
<path d="M19.375 5.9375H18.75V4.6875C18.75 4.52174 18.6842 4.36277 18.5669 4.24555C18.4497 4.12834 18.2908 4.0625 18.125 4.0625C17.9592 4.0625 17.8003 4.12834 17.6831 4.24555C17.5658 4.36277 17.5 4.52174 17.5 4.6875V5.9375H15.9375L17.4375 2.4375C17.4703 2.36158 17.4879 2.27993 17.4892 2.19723C17.4904 2.11452 17.4754 2.03238 17.4449 1.95548C17.4145 1.87858 17.3692 1.80843 17.3116 1.74905C17.254 1.68966 17.1853 1.6422 17.1094 1.60937C17.0335 1.57654 16.9518 1.55899 16.8691 1.55771C16.7864 1.55643 16.7043 1.57145 16.6274 1.60192C16.5505 1.63239 16.4803 1.67771 16.4209 1.73529C16.3615 1.79287 16.3141 1.86158 16.2812 1.9375L14.0625 7.1875H17.5V8.4375C17.5 8.60326 17.5658 8.76223 17.6831 8.87944C17.8003 8.99665 17.9592 9.0625 18.125 9.0625C18.2908 9.0625 18.4497 8.99665 18.5669 8.87944C18.6842 8.76223 18.75 8.60326 18.75 8.4375V7.1875H19.375C19.5408 7.1875 19.6997 7.12165 19.8169 7.00444C19.9342 6.88723 20 6.72826 20 6.5625C20 6.39674 19.9342 6.23777 19.8169 6.12055C19.6997 6.00334 19.5408 5.9375 19.375 5.9375Z" fill="#182E4E"/>
<path d="M13.75 7.8125H11.3437L13.1875 5.65625C13.5662 5.16764 13.7504 4.55606 13.7047 3.93958C13.6589 3.32309 13.3863 2.74544 12.9396 2.31814C12.4929 1.89084 11.9037 1.6442 11.2858 1.62584C10.6678 1.60749 10.065 1.81872 9.59375 2.21875C9.53219 2.27415 9.48215 2.34113 9.44648 2.41587C9.41081 2.49061 9.39021 2.57165 9.38586 2.65435C9.38151 2.73705 9.39348 2.8198 9.42111 2.89788C9.44874 2.97595 9.49147 3.04781 9.54687 3.10937C9.60228 3.17093 9.66926 3.22097 9.744 3.25664C9.81874 3.29231 9.89978 3.31291 9.98248 3.31726C10.0652 3.32162 10.1479 3.30964 10.226 3.28201C10.3041 3.25438 10.3759 3.21165 10.4375 3.15625C10.6162 3.00312 10.8346 2.90356 11.0674 2.86905C11.3003 2.83453 11.5381 2.86645 11.7536 2.96113C11.9691 3.05581 12.1534 3.20942 12.2855 3.40426C12.4175 3.5991 12.4919 3.82726 12.5 4.0625C12.5006 4.34781 12.4011 4.62428 12.2187 4.84375L8.65625 9.0625H13.75C13.9158 9.0625 14.0747 8.99665 14.1919 8.87944C14.3092 8.76223 14.375 8.60326 14.375 8.4375C14.375 8.27174 14.3092 8.11277 14.1919 7.99555C14.0747 7.87835 13.9158 7.8125 13.75 7.8125Z" fill="#182E4E"/>
<path d="M6.25 18.4375C6.94036 18.4375 7.5 17.8779 7.5 17.1875C7.5 16.4971 6.94036 15.9375 6.25 15.9375C5.55964 15.9375 5 16.4971 5 17.1875C5 17.8779 5.55964 18.4375 6.25 18.4375Z" fill="#182E4E"/>
<path d="M14.375 18.4375C15.0654 18.4375 15.625 17.8779 15.625 17.1875C15.625 16.4971 15.0654 15.9375 14.375 15.9375C13.6846 15.9375 13.125 16.4971 13.125 17.1875C13.125 17.8779 13.6846 18.4375 14.375 18.4375Z" fill="#182E4E"/>
<path d="M17.2188 10.0938C16.9231 9.93052 16.677 9.69046 16.5065 9.39893C16.3359 9.1074 16.2473 8.77523 16.25 8.4375H15.625C15.625 8.93478 15.4275 9.41169 15.0758 9.76333C14.7242 10.115 14.2473 10.3125 13.75 10.3125H8.65625C8.41836 10.3101 8.18608 10.24 7.98669 10.1102C7.78731 9.98038 7.6291 9.79639 7.53066 9.57981C7.43221 9.36323 7.39762 9.12306 7.43093 8.8875C7.46425 8.65194 7.5641 8.43078 7.71875 8.25L8.59375 7.1875H4.9375L3.71875 2.03125C3.68462 1.89896 3.60808 1.7815 3.50085 1.69684C3.39362 1.61219 3.2616 1.565 3.125 1.5625H0.625C0.45924 1.5625 0.300269 1.62835 0.183058 1.74556C0.065848 1.86277 0 2.02174 0 2.1875C0 2.35326 0.065848 2.51223 0.183058 2.62944C0.300269 2.74665 0.45924 2.8125 0.625 2.8125H2.625L5.4375 14.6875H15.75L16.25 13.1562L17.2188 10.0938Z" fill="#182E4E"/>
</g>
<defs>
<clipPath id="clip0_13_100">
<rect width="20" height="20" fill="white"/>
</clipPath>
</defs>
</svg>
