<svg width="20" height="20" viewBox="0 0 20 20" fill="none" xmlns="http://www.w3.org/2000/svg">
<path d="M3.59837 4.43162C3.25014 4.77984 2.97391 5.19324 2.78546 5.64821C2.597 6.10319 2.5 6.59082 2.5 7.08328C2.5 7.57575 2.597 8.06338 2.78546 8.51836C2.97391 8.97333 3.25014 9.38673 3.59837 9.73495L10 16.1366L16.4017 9.73495C17.105 9.03169 17.5001 8.07785 17.5001 7.08328C17.5001 6.08872 17.105 5.13488 16.4017 4.43162C15.6984 3.72835 14.7446 3.33326 13.75 3.33326C12.7555 3.33326 11.8016 3.72835 11.0984 4.43162L10 5.52995L8.9017 4.43162C8.55348 4.08339 8.14008 3.80717 7.68511 3.61871C7.23013 3.43025 6.74249 3.33325 6.25003 3.33325C5.75757 3.33325 5.26993 3.43025 4.81496 3.61871C4.35998 3.80717 3.94659 4.08339 3.59837 4.43162V4.43162Z" stroke="#7065F0" stroke-width="2" stroke-linecap="round" stroke-linejoin="round"/>
</svg>
