<svg width="16" height="16" viewBox="0 0 16 16" fill="none" xmlns="http://www.w3.org/2000/svg">
<g clip-path="url(#clip0_31_3490)">
<path d="M10 4.66668L5.66671 9.00002C5.4015 9.26523 5.2525 9.62494 5.2525 10C5.2525 10.3751 5.4015 10.7348 5.66671 11C5.93193 11.2652 6.29164 11.4142 6.66671 11.4142C7.04179 11.4142 7.4015 11.2652 7.66671 11L12 6.66668C12.5305 6.13625 12.8285 5.41683 12.8285 4.66668C12.8285 3.91654 12.5305 3.19712 12 2.66668C11.4696 2.13625 10.7502 1.83826 10 1.83826C9.2499 1.83826 8.53048 2.13625 8.00005 2.66668L3.66671 7.00002C2.87106 7.79567 2.42407 8.8748 2.42407 10C2.42407 11.1252 2.87106 12.2044 3.66671 13C4.46236 13.7957 5.54149 14.2427 6.66671 14.2427C7.79193 14.2427 8.87106 13.7957 9.66671 13L14 8.66668" stroke="#000929" stroke-width="1.5" stroke-linecap="round" stroke-linejoin="round"/>
</g>
<defs>
<clipPath id="clip0_31_3490">
<rect width="16" height="16" fill="white"/>
</clipPath>
</defs>
</svg>
