<svg width="20" height="20" viewBox="0 0 20 20" fill="none" xmlns="http://www.w3.org/2000/svg">
<g opacity="0.5">
<path d="M17.5 4.98332C14.725 4.70832 11.9333 4.56665 9.15 4.56665C7.5 4.56665 5.85 4.64998 4.2 4.81665L2.5 4.98332" stroke="#000929" stroke-width="1.5" stroke-linecap="round" stroke-linejoin="round"/>
<path d="M7.08337 4.14163L7.26671 3.04996C7.40004 2.25829 7.50004 1.66663 8.90837 1.66663H11.0917C12.5 1.66663 12.6084 2.29163 12.7334 3.05829L12.9167 4.14163" stroke="#000929" stroke-width="1.5" stroke-linecap="round" stroke-linejoin="round"/>
<path d="M15.7083 7.6167L15.1666 16.0084C15.075 17.3167 15 18.3334 12.675 18.3334H7.32496C4.99996 18.3334 4.92496 17.3167 4.83329 16.0084L4.29163 7.6167" stroke="#000929" stroke-width="1.5" stroke-linecap="round" stroke-linejoin="round"/>
<path d="M8.60828 13.75H11.3833" stroke="#000929" stroke-width="1.5" stroke-linecap="round" stroke-linejoin="round"/>
<path d="M7.91663 10.4166H12.0833" stroke="#000929" stroke-width="1.5" stroke-linecap="round" stroke-linejoin="round"/>
</g>
</svg>
