<svg width="24" height="24" viewBox="0 0 24 24" fill="none" xmlns="http://www.w3.org/2000/svg">
<g clip-path="url(#clip0_0_654)">
<path d="M5.26904 9.74997C5.2678 8.86048 5.44262 7.97954 5.78343 7.15793C6.12424 6.33631 6.6243 5.59028 7.25477 4.96283C7.88525 4.33538 8.63368 3.83892 9.45693 3.50207C10.2802 3.16522 11.1619 2.99464 12.0514 3.00016C15.763 3.02775 18.7317 6.11279 18.7317 9.83471V10.5C18.7317 13.8577 19.4342 15.8061 20.0529 16.871C20.1196 16.9848 20.1551 17.1142 20.1558 17.2461C20.1565 17.3779 20.1224 17.5077 20.0569 17.6222C19.9915 17.7366 19.8971 17.8319 19.7831 17.8982C19.6691 17.9645 19.5397 17.9996 19.4078 18H4.59222C4.46034 17.9996 4.33087 17.9645 4.21689 17.8982C4.1029 17.8318 4.00844 17.7366 3.94301 17.6221C3.87759 17.5076 3.84352 17.3778 3.84425 17.2459C3.84498 17.114 3.88048 16.9847 3.94716 16.8709C4.56622 15.8059 5.26904 13.8575 5.26904 10.5L5.26904 9.74997Z" stroke="#000929" stroke-width="2" stroke-linecap="round" stroke-linejoin="round"/>
<path d="M9 18V18.75C9 19.5456 9.31607 20.3087 9.87868 20.8713C10.4413 21.4339 11.2044 21.75 12 21.75C12.7956 21.75 13.5587 21.4339 14.1213 20.8713C14.6839 20.3087 15 19.5456 15 18.75V18" stroke="#000929" stroke-width="2" stroke-linecap="round" stroke-linejoin="round"/>
<mask id="path-3-outside-1_0_654" maskUnits="userSpaceOnUse" x="12" y="2" width="10" height="10" fill="black">
<rect fill="white" x="12" y="2" width="10" height="10"/>
<path fill-rule="evenodd" clip-rule="evenodd" d="M20 7C20 8.65685 18.6569 10 17 10C15.3431 10 14 8.65685 14 7C14 5.34315 15.3431 4 17 4C18.6569 4 20 5.34315 20 7Z"/>
</mask>
<path fill-rule="evenodd" clip-rule="evenodd" d="M20 7C20 8.65685 18.6569 10 17 10C15.3431 10 14 8.65685 14 7C14 5.34315 15.3431 4 17 4C18.6569 4 20 5.34315 20 7Z" fill="#7065F0"/>
<path d="M17 12C19.7614 12 22 9.76142 22 7H18C18 7.55228 17.5523 8 17 8V12ZM12 7C12 9.76142 14.2386 12 17 12V8C16.4477 8 16 7.55228 16 7H12ZM17 2C14.2386 2 12 4.23858 12 7H16C16 6.44772 16.4477 6 17 6V2ZM22 7C22 4.23858 19.7614 2 17 2V6C17.5523 6 18 6.44772 18 7H22Z" fill="#F7F7FD" mask="url(#path-3-outside-1_0_654)"/>
</g>
<defs>
<clipPath id="clip0_0_654">
<rect width="24" height="24" fill="white"/>
</clipPath>
</defs>
</svg>
