<svg width="40" height="40" viewBox="0 0 40 40" fill="none" xmlns="http://www.w3.org/2000/svg">
<g clip-path="url(#clip0_0_675)">
<path d="M29.3332 15.6131L22.2226 10.0824C21.5986 9.59697 20.8305 9.3334 20.0399 9.3334C19.2493 9.3334 18.4812 9.59697 17.8572 10.0824L10.7452 15.6131C10.3178 15.9455 9.97202 16.3711 9.73424 16.8576C9.49645 17.344 9.37297 17.8783 9.37323 18.4198V28.0198C9.37323 28.727 9.65418 29.4053 10.1543 29.9054C10.6544 30.4055 11.3327 30.6864 12.0399 30.6864H28.0399C28.7471 30.6864 29.4254 30.4055 29.9255 29.9054C30.4256 29.4053 30.7066 28.727 30.7066 28.0198V18.4198C30.7066 17.3224 30.1999 16.2864 29.3332 15.6131Z" fill="white" stroke="white" stroke-width="3" stroke-linecap="round" stroke-linejoin="round"/>
<path d="M25.3334 24C22.3867 25.7773 17.6107 25.7773 14.6667 24" stroke="#7065F0" stroke-width="3" stroke-linecap="round" stroke-linejoin="round"/>
</g>
<defs>
<clipPath id="clip0_0_675">
<rect width="32" height="32" fill="white" transform="translate(4 4)"/>
</clipPath>
</defs>
</svg>
