<svg width="20" height="20" viewBox="0 0 20 20" fill="none" xmlns="http://www.w3.org/2000/svg">
<g clip-path="url(#clip0_0_337)">
<path d="M3.3335 6.66671V5.00004C3.3335 4.55801 3.50909 4.13409 3.82165 3.82153C4.13421 3.50897 4.55814 3.33337 5.00016 3.33337H6.66683" stroke="white" stroke-width="2" stroke-linecap="round" stroke-linejoin="round"/>
<path d="M3.3335 13.3334V15C3.3335 15.4421 3.50909 15.866 3.82165 16.1786C4.13421 16.4911 4.55814 16.6667 5.00016 16.6667H6.66683" stroke="white" stroke-width="2" stroke-linecap="round" stroke-linejoin="round"/>
<path d="M13.3335 3.33337H15.0002C15.4422 3.33337 15.8661 3.50897 16.1787 3.82153C16.4912 4.13409 16.6668 4.55801 16.6668 5.00004V6.66671" stroke="white" stroke-width="2" stroke-linecap="round" stroke-linejoin="round"/>
<path d="M13.3335 16.6667H15.0002C15.4422 16.6667 15.8661 16.4911 16.1787 16.1786C16.4912 15.866 16.6668 15.4421 16.6668 15V13.3334" stroke="white" stroke-width="2" stroke-linecap="round" stroke-linejoin="round"/>
<path d="M10 9.16663V9.17496" stroke="white" stroke-width="2" stroke-linecap="round" stroke-linejoin="round"/>
<path d="M9.99984 15L7.08317 10.8333C6.80239 10.3258 6.65888 9.75388 6.66682 9.17397C6.67475 8.59405 6.83385 8.02624 7.1284 7.52664C7.42296 7.02704 7.84277 6.61293 8.34635 6.32524C8.84994 6.03755 9.41987 5.88623 9.99984 5.88623C10.5798 5.88623 11.1497 6.03755 11.6533 6.32524C12.1569 6.61293 12.5767 7.02704 12.8713 7.52664C13.1658 8.02624 13.3249 8.59405 13.3329 9.17397C13.3408 9.75388 13.1973 10.3258 12.9165 10.8333L9.99984 15Z" stroke="white" stroke-width="2" stroke-linecap="round" stroke-linejoin="round"/>
</g>
<defs>
<clipPath id="clip0_0_337">
<rect width="20" height="20" fill="white"/>
</clipPath>
</defs>
</svg>
