<svg width="20" height="20" viewBox="0 0 20 20" fill="none" xmlns="http://www.w3.org/2000/svg">
<g clip-path="url(#clip0_31_6807)">
<path d="M2.5 11.6666C3.19167 12.2016 4.23083 12.5141 5.41667 12.4999C6.6025 12.5141 7.64167 12.2016 8.33333 11.6666C9.025 11.1316 10.0642 10.8191 11.25 10.8332C12.4358 10.8191 13.475 11.1316 14.1667 11.6666" stroke="#CC9300" stroke-width="2" stroke-linecap="round" stroke-linejoin="round"/>
<path d="M6.66678 2.5C6.40304 2.68931 6.18934 2.93998 6.04415 3.23035C5.89896 3.52073 5.82665 3.84209 5.83345 4.16667C5.82665 4.49125 5.89896 4.8126 6.04415 5.10298C6.18934 5.39336 6.40304 5.64402 6.66678 5.83333" stroke="#CC9300" stroke-width="2" stroke-linecap="round" stroke-linejoin="round"/>
<path d="M10 2.5C9.73629 2.68931 9.52259 2.93998 9.37741 3.23035C9.23222 3.52073 9.1599 3.84209 9.1667 4.16667C9.1599 4.49125 9.23222 4.8126 9.37741 5.10298C9.52259 5.39336 9.73629 5.64402 10 5.83333" stroke="#CC9300" stroke-width="2" stroke-linecap="round" stroke-linejoin="round"/>
<path d="M2.5 8.33325H14.1667V12.4999C14.1667 13.826 13.6399 15.0978 12.7022 16.0355C11.7645 16.9731 10.4927 17.4999 9.16667 17.4999H7.5C6.17392 17.4999 4.90215 16.9731 3.96447 16.0355C3.02678 15.0978 2.5 13.826 2.5 12.4999V8.33325Z" stroke="#CC9300" stroke-width="2" stroke-linecap="round" stroke-linejoin="round"/>
<path d="M13.9551 13.9383C14.3272 14.1091 14.7357 14.1859 15.1445 14.162C15.5533 14.138 15.9499 14.014 16.2996 13.8008C16.6492 13.5876 16.9411 13.2918 17.1497 12.9393C17.3582 12.5869 17.477 12.1886 17.4955 11.7796C17.5141 11.3705 17.4319 10.9631 17.2561 10.5932C17.0803 10.2234 16.8164 9.90233 16.4875 9.65836C16.1586 9.41439 15.7748 9.25495 15.3698 9.19406C14.9649 9.13316 14.5512 9.17267 14.1651 9.30912" stroke="#CC9300" stroke-width="2" stroke-linecap="round" stroke-linejoin="round"/>
</g>
<defs>
<clipPath id="clip0_31_6807">
<rect width="20" height="20" fill="white"/>
</clipPath>
</defs>
</svg>
