<svg width="700" height="700" viewBox="0 0 700 700" fill="none" xmlns="http://www.w3.org/2000/svg">
<path d="M140.528 623.551L140.526 623.55C130.6 617.409 126.463 606.539 125.527 592.99C124.59 579.435 126.875 563.435 129.567 547.346C129.992 544.808 130.427 542.267 130.861 539.734C133.166 526.268 135.434 513.022 135.929 501.544C136.515 487.969 134.651 476.444 126.996 469.987C98.4121 445.532 95.1953 398.163 117.048 363.129L117.049 363.127C126.493 347.895 140.891 334.996 155.793 321.645C157.863 319.791 159.943 317.927 162.02 316.048C178.996 300.691 195.769 284.294 205.313 262.908C214.594 242.11 216.917 216.582 219.129 192.279C219.189 191.624 219.248 190.969 219.308 190.316C220.446 177.84 221.602 165.725 223.691 154.7C225.781 143.674 228.794 133.808 233.606 125.816L233.613 125.805C243.041 109.691 259.795 100.781 280.448 95.9108C301.104 91.0404 325.498 90.2501 349.996 90.25C374.315 90.425 398.632 91.3889 419.648 96.1317C440.665 100.875 458.242 109.366 469.239 124.486C480.274 139.833 484.807 162.082 487.87 185.934C488.732 192.646 489.478 199.487 490.223 206.322C492.113 223.663 494 240.972 497.778 256.088C502.539 275.947 510.437 292.209 517.327 306.393C517.825 307.42 518.319 308.436 518.806 309.442C526.047 324.408 531.682 336.943 531.001 349.238C530.574 355.281 528.592 361.325 525.72 367.817C523.704 372.376 521.274 377.105 518.662 382.187C517.544 384.364 516.392 386.605 515.225 388.926C507.46 404.368 499.175 423.041 496.356 448.237C494.844 461.051 497.63 474.381 502.262 487.696C506.269 499.213 511.686 510.793 516.961 522.072C517.783 523.83 518.602 525.58 519.411 527.321C525.431 540.274 530.932 552.736 533.634 564.298C536.334 575.848 536.207 586.367 531.125 595.514C526.019 604.706 515.861 612.687 502.667 619.077C489.493 625.457 473.402 630.197 456.587 632.97C439.774 635.742 422.273 636.541 406.289 635.061C390.292 633.581 375.884 629.824 365.207 623.538C354.083 616.99 336.952 615.438 317.096 616.264C297.233 617.091 274.407 620.314 251.696 623.521L251.554 623.541C228.768 626.759 206.105 629.955 186.538 630.734C166.917 631.516 150.659 629.851 140.528 623.551Z" fill="#7065F0" fill-opacity="0.2" stroke="#7065F0" stroke-width="2"/>
</svg>
