<svg width="254" height="56" viewBox="0 0 254 56" fill="none" xmlns="http://www.w3.org/2000/svg">
<rect y="50" width="14" height="6" rx="2" fill="#E5E7EB"/>
<rect x="16" y="48" width="14" height="8" rx="2" fill="#E5E7EB"/>
<rect x="32" y="48" width="14" height="8" rx="2" fill="#E5E7EB"/>
<rect x="48" y="44" width="14" height="12" rx="2" fill="#E5E7EB"/>
<rect x="64" y="35" width="14" height="21" rx="2" fill="#E5E7EB"/>
<rect x="80" y="21" width="14" height="35" rx="2" fill="#E5E7EB"/>
<rect x="96" y="18" width="14" height="38" rx="2" fill="#E5E7EB"/>
<rect x="112" width="14" height="56" rx="2" fill="#E5E7EB"/>
<rect x="128" y="8" width="14" height="48" rx="2" fill="#E5E7EB"/>
<rect x="144" y="24" width="14" height="32" rx="2" fill="#E5E7EB"/>
<rect x="160" y="33" width="14" height="23" rx="2" fill="#E5E7EB"/>
<rect x="176" y="8" width="14" height="48" rx="2" fill="#E5E7EB"/>
<rect x="192" y="33" width="14" height="23" rx="2" fill="#E5E7EB"/>
<rect x="208" y="39" width="14" height="17" rx="2" fill="#E5E7EB"/>
<rect x="224" y="44" width="14" height="12" rx="2" fill="#E5E7EB"/>
<rect x="240" y="50" width="14" height="6" rx="2" fill="#E5E7EB"/>
</svg>
