<svg width="16" height="16" viewBox="0 0 16 16" fill="none" xmlns="http://www.w3.org/2000/svg">
<path fill-rule="evenodd" clip-rule="evenodd" d="M4.03982 3.24C5.09008 2.18974 6.51453 1.59972 7.99982 1.59972C9.48511 1.59972 10.9096 2.18974 11.9598 3.24C13.0101 4.29026 13.6001 5.71471 13.6001 7.2C13.6001 8.68529 13.0101 10.1097 11.9598 11.16L7.99982 15.12L4.03982 11.16C3.51975 10.64 3.10721 10.0226 2.82574 9.34316C2.54428 8.6637 2.39941 7.93545 2.39941 7.2C2.39941 6.46455 2.54428 5.7363 2.82574 5.05684C3.10721 4.37738 3.51975 3.76002 4.03982 3.24ZM7.99982 8.8C8.42416 8.8 8.83113 8.63143 9.13119 8.33137C9.43125 8.03131 9.59982 7.62435 9.59982 7.2C9.59982 6.77566 9.43125 6.36869 9.13119 6.06863C8.83113 5.76857 8.42416 5.6 7.99982 5.6C7.57547 5.6 7.16851 5.76857 6.86845 6.06863C6.56839 6.36869 6.39982 6.77566 6.39982 7.2C6.39982 7.62435 6.56839 8.03131 6.86845 8.33137C7.16851 8.63143 7.57547 8.8 7.99982 8.8Z" fill="white"/>
</svg>
