<svg width="15" height="15" viewBox="0 0 15 15" fill="none" xmlns="http://www.w3.org/2000/svg">
<mask id="path-1-inside-1_13_139" fill="white">
<path d="M-5.33909e-05 7.75C-0.00223338 8.69991 0.182789 9.64095 0.544451 10.5194C0.906112 11.3978 1.43733 12.1964 2.10777 12.8697C2.77821 13.5429 3.57475 14.0775 4.45191 14.4431C5.32906 14.8086 6.26966 14.9979 7.21999 15C8.17032 15.0022 9.11177 14.8173 9.99059 14.4558C10.8694 14.0943 11.6684 13.5633 12.3419 12.8932C13.0155 12.223 13.5503 11.4268 13.916 10.5501C14.2817 9.6733 14.471 8.73312 14.4732 7.78322L7.23659 7.76661L-5.33909e-05 7.75Z"/>
</mask>
<path d="M-5.33909e-05 7.75C-0.00223338 8.69991 0.182789 9.64095 0.544451 10.5194C0.906112 11.3978 1.43733 12.1964 2.10777 12.8697C2.77821 13.5429 3.57475 14.0775 4.45191 14.4431C5.32906 14.8086 6.26966 14.9979 7.21999 15C8.17032 15.0022 9.11177 14.8173 9.99059 14.4558C10.8694 14.0943 11.6684 13.5633 12.3419 12.8932C13.0155 12.223 13.5503 11.4268 13.916 10.5501C14.2817 9.6733 14.471 8.73312 14.4732 7.78322L7.23659 7.76661L-5.33909e-05 7.75Z" stroke="#908E99" stroke-width="3" mask="url(#path-1-inside-1_13_139)"/>
<path d="M2.4425 7.74949L2.04887 0.946674C3.75458 0.379773 7.16599 -0.0737475 7.16599 2.64738V3.92281H4.41062M4.41062 3.92281H10.315V5.19834H4.80424L4.41062 3.92281Z" stroke="#908E99"/>
</svg>
