<svg width="15" height="15" viewBox="0 0 15 15" fill="none" xmlns="http://www.w3.org/2000/svg">
<g clip-path="url(#clip0_13_137)">
<path d="M14.5312 7.5C14.4069 7.5 14.2877 7.54939 14.1998 7.63729C14.1119 7.7252 14.0625 7.84443 14.0625 7.96875V11.9531H0.9375V11.4844H13.5938V10.3125C13.5932 10.1262 13.5189 9.94767 13.3872 9.81593C13.2555 9.68419 13.0769 9.60993 12.8906 9.60938H1.64062C1.45432 9.60993 1.2758 9.68419 1.14406 9.81593C1.01231 9.94767 0.938056 10.1262 0.9375 10.3125V9.14062H4.45312C4.45312 8.7055 4.28027 8.2882 3.9726 7.98053C3.66492 7.67285 3.24762 7.5 2.8125 7.5H1.64062C1.38632 7.50078 1.1393 7.58501 0.9375 7.73977V5.15625C0.9375 5.03193 0.888114 4.9127 0.800206 4.82479C0.712299 4.73689 0.59307 4.6875 0.46875 4.6875C0.34443 4.6875 0.225201 4.73689 0.137294 4.82479C0.049386 4.9127 0 5.03193 0 5.15625L0 14.5312C0 14.6556 0.049386 14.7748 0.137294 14.8627C0.225201 14.9506 0.34443 15 0.46875 15C0.59307 15 0.712299 14.9506 0.800206 14.8627C0.888114 14.7748 0.9375 14.6556 0.9375 14.5312V13.3594H14.0625V14.5312C14.0625 14.6556 14.1119 14.7748 14.1998 14.8627C14.2877 14.9506 14.4069 15 14.5312 15C14.6556 15 14.7748 14.9506 14.8627 14.8627C14.9506 14.7748 15 14.6556 15 14.5312V7.96875C15 7.84443 14.9506 7.7252 14.8627 7.63729C14.7748 7.54939 14.6556 7.5 14.5312 7.5Z" fill="#908E99"/>
</g>
<defs>
<clipPath id="clip0_13_137">
<rect width="15" height="15" fill="white"/>
</clipPath>
</defs>
</svg>
