<svg width="20" height="20" viewBox="0 0 20 20" fill="none" xmlns="http://www.w3.org/2000/svg">
<path d="M3.59837 4.43171C3.25014 4.77993 2.97391 5.19333 2.78546 5.6483C2.597 6.10328 2.5 6.59092 2.5 7.08338C2.5 7.57584 2.597 8.06348 2.78546 8.51845C2.97391 8.97342 3.25014 9.38682 3.59837 9.73504L10 16.1367L16.4017 9.73504C17.105 9.03178 17.5001 8.07794 17.5001 7.08338C17.5001 6.08881 17.105 5.13498 16.4017 4.43171C15.6984 3.72844 14.7446 3.33335 13.75 3.33335C12.7555 3.33335 11.8016 3.72844 11.0984 4.43171L10 5.53004L8.9017 4.43171C8.55348 4.08348 8.14008 3.80726 7.68511 3.6188C7.23013 3.43034 6.74249 3.33334 6.25003 3.33334C5.75757 3.33334 5.26993 3.43034 4.81496 3.6188C4.35998 3.80726 3.94659 4.08348 3.59837 4.43171V4.43171Z" stroke="#000929" stroke-width="2" stroke-linecap="round" stroke-linejoin="round"/>
</svg>
