<svg width="20" height="20" viewBox="0 0 20 20" fill="none" xmlns="http://www.w3.org/2000/svg">
<path d="M16.7188 0H3.28125C2.41101 0 1.57641 0.345702 0.961056 0.961056C0.345702 1.57641 0 2.41101 0 3.28125L0 16.7188C0 17.589 0.345702 18.4236 0.961056 19.0389C1.57641 19.6543 2.41101 20 3.28125 20H16.7188C17.589 20 18.4236 19.6543 19.0389 19.0389C19.6543 18.4236 20 17.589 20 16.7188V3.28125C20 2.41101 19.6543 1.57641 19.0389 0.961056C18.4236 0.345702 17.589 0 16.7188 0V0ZM12.0312 15H7.96875L8.65625 9.65625C8.11021 9.35478 7.67987 8.88034 7.43293 8.30757C7.18599 7.7348 7.13646 7.09619 7.29212 6.49219C7.44778 5.88819 7.7998 5.35307 8.29283 4.971C8.78585 4.58893 9.39189 4.38159 10.0156 4.38159C10.6394 4.38159 11.2454 4.58893 11.7384 4.971C12.2314 5.35307 12.5835 5.88819 12.7391 6.49219C12.8948 7.09619 12.8453 7.7348 12.5983 8.30757C12.3514 8.88034 11.921 9.35478 11.375 9.65625L12.0312 15Z" fill="#182E4E"/>
</svg>
