<svg width="12" height="12" viewBox="0 0 12 12" fill="none" xmlns="http://www.w3.org/2000/svg">
<path d="M10.0151 3.67299L4.30761 0.819234C0.473709 -1.10105 -1.09986 0.472516 0.820427 4.30642L1.40051 5.46659C1.5672 5.80664 1.5672 6.20003 1.40051 6.54008L0.820427 7.69358C-1.09986 11.5275 0.467042 13.101 4.30761 11.1808L10.0151 8.32701C12.5755 7.04682 12.5755 4.95318 10.0151 3.67299ZM7.86147 6.50007H4.26093C3.98756 6.50007 3.76086 6.27337 3.76086 6C3.76086 5.72662 3.98756 5.49992 4.26093 5.49992H7.86147C8.13484 5.49992 8.36154 5.72662 8.36154 6C8.36154 6.27337 8.13484 6.50007 7.86147 6.50007Z" fill="white"/>
</svg>
