<svg width="19" height="19" viewBox="0 0 19 19" fill="none" xmlns="http://www.w3.org/2000/svg">
<path d="M10.348 17.9818H3.56244C1.86604 17.9818 1.01784 17.1336 1.01784 15.4372V8.65164C1.01784 6.95524 1.86604 6.10704 3.56244 6.10704H7.80343V15.4372C7.80343 17.1336 8.65163 17.9818 10.348 17.9818Z" stroke="#000929" stroke-width="2" stroke-miterlimit="10" stroke-linecap="round" stroke-linejoin="round"/>
<path d="M7.89673 2.71432C7.82887 2.96878 7.80344 3.24869 7.80344 3.56252V6.10712H3.56244V4.41072C3.56244 3.4777 4.32582 2.71432 5.25884 2.71432H7.89673Z" stroke="#000929" stroke-width="2" stroke-miterlimit="10" stroke-linecap="round" stroke-linejoin="round"/>
<path d="M11.1962 6.10704V10.348" stroke="#000929" stroke-width="2" stroke-miterlimit="10" stroke-linecap="round" stroke-linejoin="round"/>
<path d="M14.5892 6.10704V10.348" stroke="#000929" stroke-width="2" stroke-miterlimit="10" stroke-linecap="round" stroke-linejoin="round"/>
<path d="M13.7408 13.741H12.0444C11.5779 13.741 11.1962 14.1226 11.1962 14.5892V17.982H14.589V14.5892C14.589 14.1226 14.2073 13.741 13.7408 13.741Z" stroke="#000929" stroke-width="2" stroke-miterlimit="10" stroke-linecap="round" stroke-linejoin="round"/>
<path d="M7.80377 15.4372V3.56244C7.80377 1.86604 8.65197 1.01784 10.3484 1.01784H15.4376C17.134 1.01784 17.9822 1.86604 17.9822 3.56244V15.4372C17.9822 17.1336 17.134 17.9818 15.4376 17.9818H10.3484C8.65197 17.9818 7.80377 17.1336 7.80377 15.4372Z" stroke="#000929" stroke-width="2" stroke-miterlimit="10" stroke-linecap="round" stroke-linejoin="round"/>
</svg>
