<svg width="15" height="15" viewBox="0 0 15 15" fill="none" xmlns="http://www.w3.org/2000/svg">
<path d="M5.47747 14.2414H9.52237C12.8931 14.2414 14.2414 12.8931 14.2414 9.52237V5.47747C14.2414 2.10672 12.8931 0.758419 9.52237 0.758419H5.47747C2.10672 0.758419 0.758419 2.10672 0.758419 5.47747V9.52237C0.758419 12.8931 2.10672 14.2414 5.47747 14.2414Z" stroke="#7065F0" stroke-width="1.5" stroke-linecap="round" stroke-linejoin="round"/>
<path d="M5.47714 6.15158C6.22178 6.15158 6.82544 5.54792 6.82544 4.80328C6.82544 4.05863 6.22178 3.45498 5.47714 3.45498C4.73249 3.45498 4.12884 4.05863 4.12884 4.80328C4.12884 5.54792 4.73249 6.15158 5.47714 6.15158Z" stroke="#7065F0" stroke-width="1.5" stroke-linecap="round" stroke-linejoin="round"/>
<path d="M1.20972 12.1852L4.53328 9.95374C5.06585 9.59644 5.83439 9.63689 6.31303 10.0481L6.5355 10.2436C7.06134 10.6953 7.91077 10.6953 8.4366 10.2436L11.2411 7.83691C11.7669 7.38523 12.6163 7.38523 13.1422 7.83691L14.241 8.78072" stroke="#7065F0" stroke-width="1.5" stroke-linecap="round" stroke-linejoin="round"/>
</svg>
