<svg width="19" height="19" viewBox="0 0 19 19" fill="none" xmlns="http://www.w3.org/2000/svg">
<path d="M11.0055 2.03237L12.539 5.09944C12.7481 5.52639 13.3058 5.93592 13.7763 6.01434L16.5558 6.47614C18.3333 6.77239 18.7516 8.06196 17.4707 9.33409L15.3098 11.495C14.9439 11.8609 14.7435 12.5667 14.8567 13.0721L15.4754 15.7471C15.9633 17.8644 14.8393 18.6834 12.966 17.5769L10.3607 16.0346C9.89017 15.7558 9.11469 15.7558 8.63546 16.0346L6.03019 17.5769C4.16555 18.6834 3.03282 17.8557 3.52076 15.7471L4.13941 13.0721C4.25268 12.5667 4.05227 11.8609 3.68632 11.495L1.52542 9.33409C0.253286 8.06196 0.662811 6.77239 2.44032 6.47614L5.21985 6.01434C5.68166 5.93592 6.23931 5.52639 6.44842 5.09944L7.98196 2.03237C8.81843 0.368136 10.1777 0.368136 11.0055 2.03237Z" stroke="#7065F0" stroke-width="1.5" stroke-linecap="round" stroke-linejoin="round"/>
</svg>
