<svg width="21" height="18" viewBox="0 0 21 18" fill="none" xmlns="http://www.w3.org/2000/svg">
<path d="M1.00934 16.9823H19.514" stroke="#000929" stroke-width="2" stroke-miterlimit="10" stroke-linecap="round" stroke-linejoin="round"/>
<path d="M16.8055 16.9907V13.2393" stroke="#000929" stroke-width="2" stroke-miterlimit="10" stroke-linecap="round" stroke-linejoin="round"/>
<path d="M16.8221 7.63735C15.7959 7.63735 14.9716 8.46166 14.9716 9.48782V11.3971C14.9716 12.4233 15.7959 13.2476 16.8221 13.2476C17.8482 13.2476 18.6725 12.4233 18.6725 11.3971V9.48782C18.6725 8.46166 17.8482 7.63735 16.8221 7.63735Z" stroke="#000929" stroke-width="2" stroke-miterlimit="10" stroke-linecap="round" stroke-linejoin="round"/>
<path d="M1.93441 16.9822V3.54954C1.93441 1.85889 2.77557 1.00934 4.4494 1.00934H9.68956C11.3634 1.00934 12.1961 1.85889 12.1961 3.54954V16.9822" stroke="#000929" stroke-width="2" stroke-miterlimit="10" stroke-linecap="round" stroke-linejoin="round"/>
<path d="M5.04672 5.41684H9.21027" stroke="#000929" stroke-width="2" stroke-miterlimit="10" stroke-linecap="round" stroke-linejoin="round"/>
<path d="M5.04672 8.57104H9.21027" stroke="#000929" stroke-width="2" stroke-miterlimit="10" stroke-linecap="round" stroke-linejoin="round"/>
<path d="M7.1073 16.9823V13.8281" stroke="#000929" stroke-width="2" stroke-miterlimit="10" stroke-linecap="round" stroke-linejoin="round"/>
</svg>
