<svg width="22" height="19" viewBox="0 0 22 19" fill="none" xmlns="http://www.w3.org/2000/svg">
<path d="M14.6514 9.4647C14.6514 11.4842 13.0195 13.1161 11 13.1161C8.98053 13.1161 7.34863 11.4842 7.34863 9.4647C7.34863 7.44523 8.98053 5.81333 11 5.81333C13.0195 5.81333 14.6514 7.44523 14.6514 9.4647Z" stroke="#9EA3AE" stroke-width="2" stroke-linecap="round" stroke-linejoin="round"/>
<path d="M11 17.8999C14.6004 17.8999 17.956 15.7784 20.2916 12.1066C21.2096 10.6685 21.2096 8.25127 20.2916 6.81317C17.956 3.1414 14.6004 1.01994 11 1.01994C7.39963 1.01994 4.04404 3.1414 1.70839 6.81317C0.79045 8.25127 0.79045 10.6685 1.70839 12.1066C4.04404 15.7784 7.39963 17.8999 11 17.8999Z" stroke="#9EA3AE" stroke-width="2" stroke-linecap="round" stroke-linejoin="round"/>
</svg>
