<svg width="20" height="20" viewBox="0 0 20 20" fill="none" xmlns="http://www.w3.org/2000/svg">
<g opacity="0.4" clip-path="url(#clip0_0_575)">
<path d="M10.0001 18.3334C14.5834 18.3334 18.3334 14.5834 18.3334 10C18.3334 5.41669 14.5834 1.66669 10.0001 1.66669C5.41675 1.66669 1.66675 5.41669 1.66675 10C1.66675 14.5834 5.41675 18.3334 10.0001 18.3334Z" stroke="#100A55" stroke-width="2" stroke-linecap="round" stroke-linejoin="round"/>
<path d="M7.5 7.70719C7.5 7.2102 7.73033 6.73358 8.14032 6.38216C8.55031 6.03074 9.10637 5.83331 9.68618 5.83331H10.3108C10.8906 5.83331 11.4467 6.03074 11.8567 6.38216C12.2667 6.73358 12.497 7.2102 12.497 7.70719C12.52 8.11273 12.4106 8.51476 12.1853 8.85273C11.96 9.1907 11.6309 9.44631 11.2477 9.58106C10.8646 9.76072 10.5355 10.1015 10.3102 10.5522C10.0849 11.0028 9.9755 10.9142 9.9985 11.4549" stroke="#000929" stroke-width="2" stroke-linecap="round" stroke-linejoin="round"/>
<path d="M9.99854 14.5781V14.5843" stroke="#000929" stroke-width="2" stroke-linecap="round" stroke-linejoin="round"/>
</g>
<defs>
<clipPath id="clip0_0_575">
<rect width="20" height="20" fill="white"/>
</clipPath>
</defs>
</svg>
