<svg width="20" height="20" viewBox="0 0 20 20" fill="none" xmlns="http://www.w3.org/2000/svg">
<g clip-path="url(#clip0_0_468)">
<path d="M11.6667 6.66659C12.5871 6.66659 13.3333 5.92039 13.3333 4.99992C13.3333 4.07944 12.5871 3.33325 11.6667 3.33325C10.7462 3.33325 10 4.07944 10 4.99992C10 5.92039 10.7462 6.66659 11.6667 6.66659Z" stroke="white" stroke-width="2" stroke-linecap="round" stroke-linejoin="round"/>
<path d="M3.3335 5H10.0002" stroke="white" stroke-width="2" stroke-linecap="round" stroke-linejoin="round"/>
<path d="M13.3335 5H16.6668" stroke="white" stroke-width="2" stroke-linecap="round" stroke-linejoin="round"/>
<path d="M6.66667 11.6666C7.58714 11.6666 8.33333 10.9204 8.33333 9.99992C8.33333 9.07944 7.58714 8.33325 6.66667 8.33325C5.74619 8.33325 5 9.07944 5 9.99992C5 10.9204 5.74619 11.6666 6.66667 11.6666Z" stroke="white" stroke-width="2" stroke-linecap="round" stroke-linejoin="round"/>
<path d="M3.3335 10H5.00016" stroke="white" stroke-width="2" stroke-linecap="round" stroke-linejoin="round"/>
<path d="M8.3335 10H16.6668" stroke="white" stroke-width="2" stroke-linecap="round" stroke-linejoin="round"/>
<path d="M14.1667 16.6666C15.0871 16.6666 15.8333 15.9204 15.8333 14.9999C15.8333 14.0794 15.0871 13.3333 14.1667 13.3333C13.2462 13.3333 12.5 14.0794 12.5 14.9999C12.5 15.9204 13.2462 16.6666 14.1667 16.6666Z" stroke="white" stroke-width="2" stroke-linecap="round" stroke-linejoin="round"/>
<path d="M3.3335 15H12.5002" stroke="white" stroke-width="2" stroke-linecap="round" stroke-linejoin="round"/>
<path d="M15.8335 15H16.6668" stroke="white" stroke-width="2" stroke-linecap="round" stroke-linejoin="round"/>
</g>
<defs>
<clipPath id="clip0_0_468">
<rect width="20" height="20" fill="white"/>
</clipPath>
</defs>
</svg>
