<svg width="20" height="20" viewBox="0 0 20 20" fill="none" xmlns="http://www.w3.org/2000/svg">
<g opacity="0.4">
<path d="M14.9999 5.96663C14.9499 5.9583 14.8916 5.9583 14.8416 5.96663C13.6916 5.92496 12.7749 4.98329 12.7749 3.81663C12.7749 2.62496 13.7332 1.66663 14.9249 1.66663C16.1166 1.66663 17.0749 2.63329 17.0749 3.81663C17.0666 4.98329 16.1499 5.92496 14.9999 5.96663Z" stroke="#100A55" stroke-width="2" stroke-linecap="round" stroke-linejoin="round"/>
<path d="M14.1415 12.0333C15.2831 12.225 16.5415 12.025 17.4248 11.4333C18.5998 10.65 18.5998 9.36664 17.4248 8.58331C16.5331 7.99164 15.2581 7.79163 14.1165 7.99163" stroke="#100A55" stroke-width="2" stroke-linecap="round" stroke-linejoin="round"/>
<path d="M4.9749 5.96663C5.0249 5.9583 5.08324 5.9583 5.13324 5.96663C6.28324 5.92496 7.1999 4.98329 7.1999 3.81663C7.1999 2.62496 6.24157 1.66663 5.0499 1.66663C3.85824 1.66663 2.8999 2.63329 2.8999 3.81663C2.90824 4.98329 3.8249 5.92496 4.9749 5.96663Z" stroke="#100A55" stroke-width="2" stroke-linecap="round" stroke-linejoin="round"/>
<path d="M5.83328 12.0333C4.69162 12.225 3.43328 12.025 2.54995 11.4333C1.37495 10.65 1.37495 9.36664 2.54995 8.58331C3.44162 7.99164 4.71662 7.79163 5.85828 7.99163" stroke="#100A55" stroke-width="2" stroke-linecap="round" stroke-linejoin="round"/>
<path d="M10.0001 12.1917C9.95015 12.1834 9.89181 12.1834 9.84181 12.1917C8.69181 12.1501 7.77515 11.2084 7.77515 10.0417C7.77515 8.85006 8.73348 7.89172 9.92514 7.89172C11.1168 7.89172 12.0751 8.85839 12.0751 10.0417C12.0668 11.2084 11.1501 12.1584 10.0001 12.1917Z" stroke="#100A55" stroke-width="2" stroke-linecap="round" stroke-linejoin="round"/>
<path d="M7.5751 14.8167C6.4001 15.6 6.4001 16.8833 7.5751 17.6667C8.90843 18.5583 11.0918 18.5583 12.4251 17.6667C13.6001 16.8833 13.6001 15.6 12.4251 14.8167C11.1001 13.9333 8.90843 13.9333 7.5751 14.8167Z" stroke="#100A55" stroke-width="2" stroke-linecap="round" stroke-linejoin="round"/>
</g>
</svg>
