<svg width="56" height="76" viewBox="0 0 56 76" fill="none" xmlns="http://www.w3.org/2000/svg">
<circle opacity="0.3" cx="28" cy="64" r="12" fill="#7065F0"/>
<circle cx="28" cy="28" r="28" fill="#7065F0"/>
<g clip-path="url(#clip0_31_6506)">
<path d="M34.9998 24.7099L29.6668 20.5619C29.1988 20.1978 28.6227 20.0002 28.0298 20.0002C27.4368 20.0002 26.8608 20.1978 26.3928 20.5619L21.0588 24.7099C20.7382 24.9592 20.4789 25.2785 20.3005 25.6433C20.1222 26.0081 20.0296 26.4088 20.0298 26.8149V34.0149C20.0298 34.5454 20.2405 35.0541 20.6156 35.4291C20.9906 35.8042 21.4994 36.0149 22.0298 36.0149H34.0298C34.5602 36.0149 35.0689 35.8042 35.444 35.4291C35.8191 35.0541 36.0298 34.5454 36.0298 34.0149V26.8149C36.0298 25.9919 35.6498 25.2149 34.9998 24.7099Z" fill="white" stroke="white" stroke-width="3" stroke-linecap="round" stroke-linejoin="round"/>
<path d="M32 31C29.79 32.333 26.208 32.333 24 31" stroke="#7065F0" stroke-width="3" stroke-linecap="round" stroke-linejoin="round"/>
</g>
<path d="M29.732 61C28.9622 62.3333 27.0377 62.3333 26.2679 61L22.8038 55C22.034 53.6667 22.9963 52 24.5359 52L31.4641 52C33.0037 52 33.966 53.6667 33.1962 55L29.732 61Z" fill="#7065F0"/>
<defs>
<clipPath id="clip0_31_6506">
<rect width="24" height="24" fill="white" transform="translate(16 16)"/>
</clipPath>
</defs>
</svg>
