<svg width="20" height="20" viewBox="0 0 20 20" fill="none" xmlns="http://www.w3.org/2000/svg">
<path d="M14.6875 6.875H19.0625C19.2283 6.875 19.3872 6.80915 19.5044 6.69194C19.6217 6.57473 19.6875 6.41576 19.6875 6.25C19.6875 6.08424 19.6217 5.92527 19.5044 5.80806C19.3872 5.69085 19.2283 5.625 19.0625 5.625H14.6875C14.5217 5.625 14.3628 5.69085 14.2456 5.80806C14.1283 5.92527 14.0625 6.08424 14.0625 6.25C14.0625 6.41576 14.1283 6.57473 14.2456 6.69194C14.3628 6.80915 14.5217 6.875 14.6875 6.875ZM19.0625 8.125H14.6875C14.5217 8.125 14.3628 8.19085 14.2456 8.30806C14.1283 8.42527 14.0625 8.58424 14.0625 8.75C14.0625 8.91576 14.1283 9.07473 14.2456 9.19194C14.3628 9.30915 14.5217 9.375 14.6875 9.375H19.0625C19.2283 9.375 19.3872 9.30915 19.5044 9.19194C19.6217 9.07473 19.6875 8.91576 19.6875 8.75C19.6875 8.58424 19.6217 8.42527 19.5044 8.30806C19.3872 8.19085 19.2283 8.125 19.0625 8.125ZM19.0625 10.625H14.6875C14.5217 10.625 14.3628 10.6908 14.2456 10.8081C14.1283 10.9253 14.0625 11.0842 14.0625 11.25C14.0625 11.4158 14.1283 11.5747 14.2456 11.6919C14.3628 11.8092 14.5217 11.875 14.6875 11.875H19.0625C19.2283 11.875 19.3872 11.8092 19.5044 11.6919C19.6217 11.5747 19.6875 11.4158 19.6875 11.25C19.6875 11.0842 19.6217 10.9253 19.5044 10.8081C19.3872 10.6908 19.2283 10.625 19.0625 10.625ZM19.0625 13.125H14.6875C14.5217 13.125 14.3628 13.1908 14.2456 13.3081C14.1283 13.4253 14.0625 13.5842 14.0625 13.75C14.0625 13.9158 14.1283 14.0747 14.2456 14.1919C14.3628 14.3092 14.5217 14.375 14.6875 14.375H19.0625C19.2283 14.375 19.3872 14.3092 19.5044 14.1919C19.6217 14.0747 19.6875 13.9158 19.6875 13.75C19.6875 13.5842 19.6217 13.4253 19.5044 13.3081C19.3872 13.1908 19.2283 13.125 19.0625 13.125Z" fill="#182E4E"/>
<path d="M0.3125 10C0.3125 11.4918 0.905132 12.9226 1.96002 13.9775C3.01492 15.0324 4.44566 15.625 5.9375 15.625H7.8125V4.375H5.9375C4.44566 4.375 3.01492 4.96763 1.96002 6.02252C0.905132 7.07742 0.3125 8.50816 0.3125 10ZM9.0625 4.375H12.1875V15.625H9.0625V4.375Z" fill="#182E4E"/>
</svg>
