<svg width="20" height="20" viewBox="0 0 20 20" fill="none" xmlns="http://www.w3.org/2000/svg">
<g opacity="0.4" clip-path="url(#clip0_0_539)">
<path d="M17.2605 6.56836L11.7053 2.25151C11.2178 1.87259 10.6177 1.66687 10.0001 1.66687C9.38242 1.66687 8.78238 1.87259 8.29487 2.25151L2.73862 6.56836C2.40471 6.82779 2.13455 7.16002 1.94879 7.5397C1.76302 7.91937 1.66655 8.33643 1.66675 8.75904V16.2521C1.66675 16.8041 1.88624 17.3336 2.27694 17.7239C2.66764 18.1142 3.19755 18.3335 3.75008 18.3335H16.2501C16.8026 18.3335 17.3325 18.1142 17.7232 17.7239C18.1139 17.3336 18.3334 16.8041 18.3334 16.2521V8.75904C18.3334 7.90254 17.9376 7.09391 17.2605 6.56836Z" stroke="#100A55" stroke-width="2" stroke-linecap="round" stroke-linejoin="round"/>
</g>
<defs>
<clipPath id="clip0_0_539">
<rect width="20" height="20" fill="white"/>
</clipPath>
</defs>
</svg>
