<svg width="100" height="100" viewBox="0 0 100 100" fill="none" xmlns="http://www.w3.org/2000/svg">
<circle cx="50" cy="50" r="50" fill="#E0DEF7"/>
<g filter="url(#filter0_d_31_3323)">
<path d="M50 50C55.5228 50 60 45.5228 60 40C60 34.4772 55.5228 30 50 30C44.4772 30 40 34.4772 40 40C40 45.5228 44.4772 50 50 50Z" fill="white"/>
</g>
<g filter="url(#filter1_d_31_3323)">
<path d="M49.9999 55C39.9799 55 31.8199 61.72 31.8199 70C31.8199 70.56 32.2599 71 32.8199 71H67.1799C67.7399 71 68.1799 70.56 68.1799 70C68.1799 61.72 60.0199 55 49.9999 55Z" fill="white"/>
</g>
<defs>
<filter id="filter0_d_31_3323" x="38" y="28" width="28" height="28" filterUnits="userSpaceOnUse" color-interpolation-filters="sRGB">
<feFlood flood-opacity="0" result="BackgroundImageFix"/>
<feColorMatrix in="SourceAlpha" type="matrix" values="0 0 0 0 0 0 0 0 0 0 0 0 0 0 0 0 0 0 127 0" result="hardAlpha"/>
<feOffset dx="2" dy="2"/>
<feGaussianBlur stdDeviation="2"/>
<feComposite in2="hardAlpha" operator="out"/>
<feColorMatrix type="matrix" values="0 0 0 0 0.439216 0 0 0 0 0.396078 0 0 0 0 0.941176 0 0 0 0.1 0"/>
<feBlend mode="normal" in2="BackgroundImageFix" result="effect1_dropShadow_31_3323"/>
<feBlend mode="normal" in="SourceGraphic" in2="effect1_dropShadow_31_3323" result="shape"/>
</filter>
<filter id="filter1_d_31_3323" x="29.8199" y="53" width="44.36" height="24" filterUnits="userSpaceOnUse" color-interpolation-filters="sRGB">
<feFlood flood-opacity="0" result="BackgroundImageFix"/>
<feColorMatrix in="SourceAlpha" type="matrix" values="0 0 0 0 0 0 0 0 0 0 0 0 0 0 0 0 0 0 127 0" result="hardAlpha"/>
<feOffset dx="2" dy="2"/>
<feGaussianBlur stdDeviation="2"/>
<feComposite in2="hardAlpha" operator="out"/>
<feColorMatrix type="matrix" values="0 0 0 0 0.439216 0 0 0 0 0.396078 0 0 0 0 0.941176 0 0 0 0.1 0"/>
<feBlend mode="normal" in2="BackgroundImageFix" result="effect1_dropShadow_31_3323"/>
<feBlend mode="normal" in="SourceGraphic" in2="effect1_dropShadow_31_3323" result="shape"/>
</filter>
</defs>
</svg>
