<svg width="16" height="16" viewBox="0 0 16 16" fill="none" xmlns="http://www.w3.org/2000/svg">
<g clip-path="url(#clip0_31_6404)">
<path d="M12.6665 5.80672L9.11119 3.04138C8.79918 2.79865 8.41516 2.66687 8.01986 2.66687C7.62455 2.66687 7.24053 2.79865 6.92852 3.04138L3.37252 5.80672C3.15882 5.97291 2.98592 6.18573 2.86703 6.42895C2.74814 6.67216 2.6864 6.93933 2.68652 7.21005V12.01C2.68652 12.3637 2.827 12.7028 3.07705 12.9529C3.3271 13.2029 3.66624 13.3434 4.01986 13.3434H12.0199C12.3735 13.3434 12.7126 13.2029 12.9627 12.9529C13.2127 12.7028 13.3532 12.3637 13.3532 12.01V7.21005C13.3532 6.66138 13.0999 6.14338 12.6665 5.80672Z" fill="#7065F0" stroke="#7065F0" stroke-width="3" stroke-linecap="round" stroke-linejoin="round"/>
<path d="M10.6668 10C9.1935 10.8887 6.8055 10.8887 5.3335 10" stroke="#F7F7FD" stroke-width="2" stroke-linecap="round" stroke-linejoin="round"/>
</g>
<defs>
<clipPath id="clip0_31_6404">
<rect width="16" height="16" fill="white"/>
</clipPath>
</defs>
</svg>
