<svg width="21" height="17" viewBox="0 0 21 17" fill="none" xmlns="http://www.w3.org/2000/svg">
<path d="M9.03499 0.0210595C4.05284 0.0210595 0 3.32739 0 7.39187C0 11.4563 4.05284 14.7627 9.03499 14.7627C10.558 14.7627 12.0553 14.4678 13.3202 13.8992C13.4215 13.9987 13.5338 14.0904 13.6557 14.173L16.2372 16.279C16.4755 16.4978 16.7662 16.6745 17.0913 16.7984C17.4164 16.9222 17.7692 16.9905 18.1278 16.9992C18.4865 17.0078 18.8435 16.9565 19.177 16.8485C19.5105 16.7404 19.8134 16.5779 20.0672 16.3709C20.3209 16.1639 20.5201 15.9168 20.6525 15.6448C20.7849 15.3727 20.8478 15.0814 20.8372 14.7888C20.8267 14.4962 20.7429 14.2085 20.5911 13.9432C20.4393 13.678 20.2226 13.4409 19.9544 13.2464L17.373 11.1405C17.2473 11.0378 17.1088 10.9461 16.96 10.8667C17.657 9.83477 18.0958 8.63438 18.0958 7.37081C18.0958 3.30633 14.043 0 9.06081 0L9.03499 0.0210595ZM9.03499 2.127C12.6232 2.127 15.4886 4.4646 15.4886 7.39187C15.4886 8.78179 14.869 10.0664 13.7848 11.0141C13.759 11.0352 13.7332 11.0562 13.7074 11.0773C13.5854 11.1599 13.4731 11.2516 13.3718 11.351C12.236 12.1934 10.6871 12.6778 9.00918 12.6778C5.42099 12.6778 2.55561 10.3402 2.55561 7.41293C2.55561 4.48566 5.42099 2.14806 9.00918 2.14806L9.03499 2.127Z" fill="#226BD0"/>
</svg>
