<svg width="20" height="20" viewBox="0 0 20 20" fill="none" xmlns="http://www.w3.org/2000/svg">
<path d="M17.4998 8.98329V6.66663C17.4998 5.29163 16.3748 4.16663 14.9998 4.16663H11.6665C11.0248 4.16663 10.4415 4.41663 9.99984 4.81663C9.55817 4.41663 8.97484 4.16663 8.33317 4.16663H4.99984C3.62484 4.16663 2.49984 5.29163 2.49984 6.66663V8.98329C1.9915 9.44163 1.6665 10.1 1.6665 10.8333V15.8333H3.33317V14.1666H16.6665V15.8333H18.3332V10.8333C18.3332 10.1 18.0082 9.44163 17.4998 8.98329ZM11.6665 5.83329H14.9998C15.4582 5.83329 15.8332 6.20829 15.8332 6.66663V8.33329H10.8332V6.66663C10.8332 6.20829 11.2082 5.83329 11.6665 5.83329ZM4.1665 6.66663C4.1665 6.20829 4.5415 5.83329 4.99984 5.83329H8.33317C8.7915 5.83329 9.1665 6.20829 9.1665 6.66663V8.33329H4.1665V6.66663ZM3.33317 12.5V10.8333C3.33317 10.375 3.70817 9.99996 4.1665 9.99996H15.8332C16.2915 9.99996 16.6665 10.375 16.6665 10.8333V12.5H3.33317Z" fill="#7065F0"/>
</svg>
