<svg width="16" height="16" viewBox="0 0 16 16" fill="none" xmlns="http://www.w3.org/2000/svg">
<path d="M2.87869 4.21194C2.60011 4.49052 2.37913 4.82124 2.22836 5.18522C2.0776 5.5492 2 5.93931 2 6.33328C2 6.72725 2.0776 7.11736 2.22836 7.48134C2.37913 7.84532 2.60011 8.17604 2.87869 8.45461L8.00003 13.5759L13.1214 8.45461C13.684 7.892 14 7.12893 14 6.33328C14 5.53762 13.684 4.77456 13.1214 4.21194C12.5587 3.64933 11.7957 3.33326 11 3.33326C10.2044 3.33326 9.4413 3.64933 8.87869 4.21194L8.00003 5.09061L7.12136 4.21194C6.84278 3.93336 6.51206 3.71238 6.14808 3.56162C5.78411 3.41085 5.39399 3.33325 5.00003 3.33325C4.60606 3.33325 4.21595 3.41085 3.85197 3.56162C3.48799 3.71238 3.15727 3.93336 2.87869 4.21194Z" fill="#EE6A5F" stroke="#EE6A5F" stroke-width="2" stroke-linecap="round" stroke-linejoin="round"/>
</svg>
