<svg width="64" height="64" viewBox="0 0 64 64" fill="none" xmlns="http://www.w3.org/2000/svg">
<path d="M63.1281 26L55.0001 19.5V5.00002C55.0001 4.7348 54.8947 4.48045 54.7072 4.29291C54.5196 4.10537 54.2653 4.00002 54.0001 4.00002H47.0001C46.7348 4.00002 46.4805 4.10537 46.2929 4.29291C46.1054 4.48045 46.0001 4.7348 46.0001 5.00002V12.3L32.6251 1.60002C32.4478 1.45827 32.2275 1.38104 32.0006 1.38104C31.7736 1.38104 31.5533 1.45827 31.3761 1.60002L0.872052 26C0.761933 26.0879 0.671629 26.1981 0.607057 26.3233C0.542485 26.4485 0.505103 26.586 0.497361 26.7267C0.489619 26.8673 0.511691 27.0081 0.562132 27.1396C0.612572 27.2712 0.690243 27.3906 0.790052 27.49L3.63105 30.331C3.80559 30.5055 4.03849 30.6093 4.28494 30.6224C4.5314 30.6355 4.77399 30.557 4.96605 30.402L31.3721 9.07402C31.55 8.93025 31.7718 8.85183 32.0006 8.85183C32.2293 8.85183 32.4511 8.93025 32.6291 9.07402L59.0341 30.4C59.2261 30.555 59.4687 30.6335 59.7152 30.6204C59.9616 30.6073 60.1945 30.5035 60.3691 30.329L63.2101 27.49C63.3099 27.3906 63.3875 27.2712 63.438 27.1396C63.4884 27.0081 63.5105 26.8673 63.5027 26.7267C63.495 26.586 63.4576 26.4485 63.393 26.3233C63.3285 26.1981 63.2382 26.0879 63.1281 26Z" fill="#226BD0"/>
<path d="M32 12L9 31V61C9 61.2652 9.10536 61.5196 9.29289 61.7071C9.48043 61.8946 9.73478 62 10 62H22V41C22 40.7348 22.1054 40.4804 22.2929 40.2929C22.4804 40.1054 22.7348 40 23 40H41C41.2652 40 41.5196 40.1054 41.7071 40.2929C41.8946 40.4804 42 40.7348 42 41V62H54C54.2652 62 54.5196 61.8946 54.7071 61.7071C54.8946 61.5196 55 61.2652 55 61V31L32 12ZM32 33C31.0111 33 30.0444 32.7068 29.2221 32.1573C28.3999 31.6079 27.759 30.827 27.3806 29.9134C27.0022 28.9998 26.9031 27.9945 27.0961 27.0245C27.289 26.0546 27.7652 25.1637 28.4645 24.4645C29.1637 23.7652 30.0546 23.289 31.0245 23.0961C31.9945 22.9031 32.9998 23.0022 33.9134 23.3806C34.827 23.759 35.6079 24.3999 36.1573 25.2221C36.7068 26.0444 37 27.0111 37 28C37 29.3261 36.4732 30.5979 35.5355 31.5355C34.5979 32.4732 33.3261 33 32 33Z" fill="#226BD0"/>
<path d="M25 42H39C39.2652 42 39.5196 42.1054 39.7071 42.2929C39.8946 42.4804 40 42.7348 40 43V62H24V43C24 42.7348 24.1054 42.4804 24.2929 42.2929C24.4804 42.1054 24.7348 42 25 42Z" fill="#226BD0"/>
</svg>
