<svg width="64" height="64" viewBox="0 0 64 64" fill="none" xmlns="http://www.w3.org/2000/svg">
<path d="M32 2C26.0666 2 20.2664 3.75947 15.3329 7.05591C10.3994 10.3524 6.55426 15.0377 4.28363 20.5195C2.013 26.0013 1.4189 32.0333 2.57646 37.8527C3.73401 43.6721 6.59123 49.0176 10.7868 53.2132C14.9824 57.4088 20.3279 60.266 26.1473 61.4236C31.9667 62.5811 37.9987 61.987 43.4805 59.7164C48.9623 57.4458 53.6477 53.6006 56.9441 48.6671C60.2405 43.7336 62 37.9334 62 32C62 24.0435 58.8393 16.4129 53.2132 10.7868C47.5871 5.16071 39.9565 2 32 2ZM44.5 17.1L34.1 32H40C40.5304 32 41.0392 32.2107 41.4142 32.5858C41.7893 32.9609 42 33.4696 42 34C42 34.5304 41.7893 35.0391 41.4142 35.4142C41.0392 35.7893 40.5304 36 40 36H34V40H40C40.5304 40 41.0392 40.2107 41.4142 40.5858C41.7893 40.9609 42 41.4696 42 42C42 42.5304 41.7893 43.0391 41.4142 43.4142C41.0392 43.7893 40.5304 44 40 44H34V52C34 52.5304 33.7893 53.0391 33.4142 53.4142C33.0392 53.7893 32.5304 54 32 54C31.4696 54 30.9609 53.7893 30.5858 53.4142C30.2107 53.0391 30 52.5304 30 52V44H24C23.4696 44 22.9609 43.7893 22.5858 43.4142C22.2107 43.0391 22 42.5304 22 42C22 41.4696 22.2107 40.9609 22.5858 40.5858C22.9609 40.2107 23.4696 40 24 40H30V36H24C23.4696 36 22.9609 35.7893 22.5858 35.4142C22.2107 35.0391 22 34.5304 22 34C22 33.4696 22.2107 32.9609 22.5858 32.5858C22.9609 32.2107 23.4696 32 24 32H29.8L19.5 17.1C19.195 16.6624 19.0763 16.1215 19.1701 15.5964C19.2639 15.0713 19.5624 14.605 20 14.3C20.4376 13.995 20.9785 13.8763 21.5036 13.9701C22.0287 14.0639 22.495 14.3624 22.8 14.8L32 28.1L41.2 14.9C41.505 14.4624 41.9714 14.1639 42.4965 14.0701C43.0216 13.9763 43.5624 14.095 44 14.4C44.4376 14.705 44.7361 15.1713 44.8299 15.6964C44.9237 16.2215 44.805 16.7624 44.5 17.2V17.1Z" fill="#226BD0"/>
</svg>
