<svg width="12" height="12" viewBox="0 0 12 12" fill="none" xmlns="http://www.w3.org/2000/svg">
<path fill-rule="evenodd" clip-rule="evenodd" d="M3.0002 1.2002C3.15933 1.2002 3.31194 1.26341 3.42446 1.37593C3.53698 1.48845 3.6002 1.64107 3.6002 1.8002V2.4002H4.2002C4.35933 2.4002 4.51194 2.46341 4.62446 2.57593C4.73698 2.68845 4.8002 2.84107 4.8002 3.0002C4.8002 3.15933 4.73698 3.31194 4.62446 3.42446C4.51194 3.53698 4.35933 3.6002 4.2002 3.6002H3.6002V4.2002C3.6002 4.35932 3.53698 4.51194 3.42446 4.62446C3.31194 4.73698 3.15933 4.8002 3.0002 4.8002C2.84107 4.8002 2.68845 4.73698 2.57593 4.62446C2.46341 4.51194 2.4002 4.35932 2.4002 4.2002V3.6002H1.8002C1.64107 3.6002 1.48845 3.53698 1.37593 3.42446C1.26341 3.31194 1.2002 3.15933 1.2002 3.0002C1.2002 2.84107 1.26341 2.68845 1.37593 2.57593C1.48845 2.46341 1.64107 2.4002 1.8002 2.4002H2.4002V1.8002C2.4002 1.64107 2.46341 1.48845 2.57593 1.37593C2.68845 1.26341 2.84107 1.2002 3.0002 1.2002ZM3.0002 7.20019C3.15933 7.20019 3.31194 7.26341 3.42446 7.37593C3.53698 7.48845 3.6002 7.64107 3.6002 7.80019V8.4002H4.2002C4.35933 8.4002 4.51194 8.46341 4.62446 8.57593C4.73698 8.68845 4.8002 8.84106 4.8002 9.0002C4.8002 9.15932 4.73698 9.31194 4.62446 9.42446C4.51194 9.53698 4.35933 9.60019 4.2002 9.60019H3.6002V10.2002C3.6002 10.3593 3.53698 10.5119 3.42446 10.6245C3.31194 10.737 3.15933 10.8002 3.0002 10.8002C2.84107 10.8002 2.68845 10.737 2.57593 10.6245C2.46341 10.5119 2.4002 10.3593 2.4002 10.2002V9.60019H1.8002C1.64107 9.60019 1.48845 9.53698 1.37593 9.42446C1.26341 9.31194 1.2002 9.15932 1.2002 9.0002C1.2002 8.84106 1.26341 8.68845 1.37593 8.57593C1.48845 8.46341 1.64107 8.4002 1.8002 8.4002H2.4002V7.80019C2.4002 7.64107 2.46341 7.48845 2.57593 7.37593C2.68845 7.26341 2.84107 7.20019 3.0002 7.20019ZM7.2002 1.2002C7.33261 1.20015 7.46132 1.24391 7.56626 1.32466C7.67121 1.4054 7.7465 1.51859 7.7804 1.6466L8.4878 4.32019L10.5002 5.4806C10.5914 5.53326 10.6671 5.609 10.7198 5.70021C10.7724 5.79142 10.8002 5.89488 10.8002 6.0002C10.8002 6.10551 10.7724 6.20897 10.7198 6.30018C10.6671 6.39139 10.5914 6.46713 10.5002 6.51979L8.4878 7.68079L7.7798 10.3538C7.74584 10.4817 7.67056 10.5947 7.56568 10.6754C7.4608 10.7561 7.33221 10.7998 7.1999 10.7998C7.06759 10.7998 6.93899 10.7561 6.83411 10.6754C6.72923 10.5947 6.65395 10.4817 6.62 10.3538L5.9126 7.68019L3.9002 6.51979C3.80899 6.46713 3.73326 6.39139 3.6806 6.30018C3.62794 6.20897 3.60022 6.10551 3.60022 6.0002C3.60022 5.89488 3.62794 5.79142 3.6806 5.70021C3.73326 5.609 3.80899 5.53326 3.9002 5.4806L5.9126 4.3196L6.6206 1.6466C6.65447 1.51869 6.72967 1.40557 6.83449 1.32484C6.93931 1.24411 7.06788 1.20028 7.2002 1.2002Z" fill="white"/>
</svg>
