<svg width="32" height="32" viewBox="0 0 32 32" fill="none" xmlns="http://www.w3.org/2000/svg">
<g clip-path="url(#clip0_0_487)">
<path d="M25.3333 11.6134L18.2226 6.08277C17.5986 5.59731 16.8306 5.33374 16.04 5.33374C15.2494 5.33374 14.4813 5.59731 13.8573 6.08277L6.74529 11.6134C6.31788 11.9458 5.97208 12.3715 5.7343 12.8579C5.49651 13.3443 5.37304 13.8787 5.37329 14.4201V24.0201C5.37329 24.7273 5.65424 25.4056 6.15434 25.9057C6.65444 26.4058 7.33271 26.6868 8.03996 26.6868H24.04C24.7472 26.6868 25.4255 26.4058 25.9256 25.9057C26.4257 25.4056 26.7066 24.7273 26.7066 24.0201V14.4201C26.7066 13.3228 26.2 12.2868 25.3333 11.6134Z" fill="#7065F0" stroke="#7065F0" stroke-width="3" stroke-linecap="round" stroke-linejoin="round"/>
<path d="M21.3333 20C18.3866 21.7773 13.6106 21.7773 10.6666 20" stroke="#F9FAFB" stroke-width="3" stroke-linecap="round" stroke-linejoin="round"/>
</g>
<defs>
<clipPath id="clip0_0_487">
<rect width="32" height="32" fill="white"/>
</clipPath>
</defs>
</svg>
