<svg width="20" height="20" viewBox="0 0 20 20" fill="none" xmlns="http://www.w3.org/2000/svg">
<path d="M17.4998 8.33333H5.83317V5.83333C5.83317 4.91417 6.58067 4.16667 7.49984 4.16667C8.419 4.16667 9.1665 4.91417 9.1665 5.83333H10.8332C10.8332 3.995 9.33817 2.5 7.49984 2.5C5.6615 2.5 4.1665 3.995 4.1665 5.83333V8.33333H2.49984C2.27882 8.33333 2.06686 8.42113 1.91058 8.57741C1.7543 8.73369 1.6665 8.94565 1.6665 9.16667V10.8333C1.6665 13.005 3.0615 14.8525 4.99984 15.5417V18.3333H6.6665V15.8333H13.3332V18.3333H14.9998V15.5417C16.9382 14.8525 18.3332 13.005 18.3332 10.8333V9.16667C18.3332 8.94565 18.2454 8.73369 18.0891 8.57741C17.9328 8.42113 17.7209 8.33333 17.4998 8.33333ZM16.6665 10.8333C16.6665 12.6717 15.1715 14.1667 13.3332 14.1667H6.6665C4.82817 14.1667 3.33317 12.6717 3.33317 10.8333V10H16.6665V10.8333Z" fill="#7065F0"/>
</svg>
