<svg width="24" height="24" viewBox="0 0 24 24" fill="none" xmlns="http://www.w3.org/2000/svg">
<g filter="url(#filter0_d_0_372)">
<path d="M10.1453 19.25H13.0086C13.042 19.25 13.074 19.2367 13.0976 19.2132L13.9188 18.3919C14.0097 18.301 14.1329 18.25 14.2614 18.25C14.4448 18.25 14.6125 18.3537 14.6946 18.5178L15.0423 19.2132C15.0536 19.2357 15.0767 19.25 15.1019 19.25H16.2818C16.4359 19.25 16.5607 19.1251 16.5607 18.9711C16.5607 17.8393 16.8242 16.7229 17.3304 15.7106C17.9789 14.4136 18.7679 13.1007 18.5357 11.5868L18.3537 10.4006C18.2963 10.0263 17.9743 9.75 17.5957 9.75H17.4578C17.1105 9.75 16.8289 10.0316 16.8289 10.3789V10.8738C16.8289 10.9478 16.7689 11.0079 16.6948 11.0079C16.6207 11.0079 16.5607 10.9478 16.5607 10.8738V9.75C16.5607 9.19772 16.113 8.75 15.5607 8.75C15.0084 8.75 14.5607 9.19772 14.5607 9.75V10.8954C14.5607 11.0335 14.4488 11.1454 14.3107 11.1454C14.1726 11.1454 14.0607 11.0335 14.0607 10.8954V9.75C14.0607 9.19772 13.613 8.75 13.0607 8.75C12.5084 8.75 12.0607 9.19772 12.0607 9.75V11.191C12.0607 11.2298 12.0517 11.2681 12.0343 11.3028C11.9422 11.487 11.6792 11.487 11.5871 11.3028C11.5698 11.2681 11.5607 11.2298 11.5607 11.191V6.25C11.5607 5.59827 11.0294 4.75 10.3107 4.75C9.59201 4.75 9.06072 5.59827 9.06072 6.25V12.4329C9.06072 12.608 8.91873 12.75 8.74359 12.75C8.63041 12.75 8.52609 12.6902 8.46818 12.5929C8.2757 12.2697 7.82792 11.5365 7.56072 11.25C7.4101 11.0885 7.10812 10.9731 6.81434 10.8941C6.35879 10.7716 5.89643 10.9964 5.63476 11.3889C5.30098 11.8896 5.36699 12.5563 5.79248 12.9818L6.61356 13.8028C6.90762 14.0969 7.12918 14.4554 7.26069 14.8499L7.31072 15C7.47512 15.4932 7.75211 15.9414 8.11973 16.309L9.41339 17.6027C9.82787 18.0171 10.0607 18.5793 10.0607 19.1655C10.0607 19.2122 10.0986 19.25 10.1453 19.25Z" fill="white"/>
<path d="M10.1453 19.25H13.0086C13.042 19.25 13.074 19.2367 13.0976 19.2132L13.9188 18.3919C14.0097 18.301 14.1329 18.25 14.2614 18.25C14.4448 18.25 14.6125 18.3537 14.6946 18.5178L15.0423 19.2132C15.0536 19.2357 15.0767 19.25 15.1019 19.25H16.2818C16.4359 19.25 16.5607 19.1251 16.5607 18.9711C16.5607 17.8393 16.8242 16.7229 17.3304 15.7106C17.9789 14.4136 18.7679 13.1007 18.5357 11.5868L18.3537 10.4006C18.2963 10.0263 17.9743 9.75 17.5957 9.75H17.4578C17.1105 9.75 16.8289 10.0316 16.8289 10.3789V10.8738C16.8289 10.9478 16.7689 11.0079 16.6948 11.0079C16.6207 11.0079 16.5607 10.9478 16.5607 10.8738V9.75C16.5607 9.19772 16.113 8.75 15.5607 8.75C15.0084 8.75 14.5607 9.19772 14.5607 9.75V10.8954C14.5607 11.0335 14.4488 11.1454 14.3107 11.1454C14.1726 11.1454 14.0607 11.0335 14.0607 10.8954V9.75C14.0607 9.19772 13.613 8.75 13.0607 8.75C12.5084 8.75 12.0607 9.19772 12.0607 9.75V11.191C12.0607 11.2298 12.0517 11.2681 12.0343 11.3028C11.9422 11.487 11.6792 11.487 11.5871 11.3028C11.5698 11.2681 11.5607 11.2298 11.5607 11.191V6.25C11.5607 5.59827 11.0294 4.75 10.3107 4.75C9.59201 4.75 9.06072 5.59827 9.06072 6.25V12.4329C9.06072 12.608 8.91873 12.75 8.74359 12.75C8.63041 12.75 8.52609 12.6902 8.46818 12.5929C8.2757 12.2697 7.82792 11.5365 7.56072 11.25C7.4101 11.0885 7.10812 10.9731 6.81434 10.8941C6.35879 10.7716 5.89643 10.9964 5.63476 11.3889C5.30098 11.8896 5.36699 12.5563 5.79248 12.9818L6.61356 13.8028C6.90762 14.0969 7.12918 14.4554 7.26069 14.8499L7.31072 15C7.47512 15.4932 7.75211 15.9414 8.11973 16.309L9.41339 17.6027C9.82787 18.0171 10.0607 18.5793 10.0607 19.1655C10.0607 19.2122 10.0986 19.25 10.1453 19.25Z" stroke="black" stroke-width="0.8"/>
</g>
<line x1="11.9378" y1="13.1082" x2="11.9378" y2="16.9565" stroke="black" stroke-width="0.8"/>
<line x1="13.9114" y1="13.1082" x2="13.9114" y2="16.9565" stroke="black" stroke-width="0.8"/>
<line x1="15.9343" y1="13.1082" x2="15.9343" y2="16.9565" stroke="black" stroke-width="0.8"/>
<defs>
<filter id="filter0_d_0_372" x="1.22271" y="2.54998" width="19.554" height="20.9" filterUnits="userSpaceOnUse" color-interpolation-filters="sRGB">
<feFlood flood-opacity="0" result="BackgroundImageFix"/>
<feColorMatrix in="SourceAlpha" type="matrix" values="0 0 0 0 0 0 0 0 0 0 0 0 0 0 0 0 0 0 127 0" result="hardAlpha"/>
<feOffset dx="-1" dy="1"/>
<feGaussianBlur stdDeviation="1.4"/>
<feColorMatrix type="matrix" values="0 0 0 0 0 0 0 0 0 0 0 0 0 0 0 0 0 0 0.2 0"/>
<feBlend mode="normal" in2="BackgroundImageFix" result="effect1_dropShadow_0_372"/>
<feBlend mode="normal" in="SourceGraphic" in2="effect1_dropShadow_0_372" result="shape"/>
</filter>
</defs>
</svg>
