<svg width="24" height="24" viewBox="0 0 24 24" fill="none" xmlns="http://www.w3.org/2000/svg">
<path d="M20.7122 7.88199L14.046 2.70181C13.461 2.24712 12.741 2.00025 11.9998 2.00025C11.2586 2.00025 10.5386 2.24712 9.95357 2.70181L3.28612 7.88199C2.88542 8.19331 2.56124 8.59199 2.33832 9.0476C2.1154 9.5032 1.99964 10.0037 1.99987 10.5108V19.5024C1.99987 20.1649 2.26326 20.8002 2.7321 21.2686C3.20094 21.737 3.83682 22.0001 4.49986 22.0001H19.4998C20.1628 22.0001 20.7987 21.737 21.2675 21.2686C21.7363 20.8002 21.9997 20.1649 21.9997 19.5024V10.5108C21.9997 9.483 21.5247 8.51266 20.7122 7.88199Z" fill="white" stroke="white" stroke-width="2" stroke-linecap="round" stroke-linejoin="round"/>
</svg>
