<svg width="24" height="24" viewBox="0 0 24 24" fill="none" xmlns="http://www.w3.org/2000/svg">
<g opacity="0.5">
<path d="M18 11.25H4.5V6.375C4.50148 5.87818 4.6995 5.40212 5.05081 5.05081C5.40212 4.6995 5.87818 4.50148 6.375 4.5H17.625C18.1218 4.50148 18.5979 4.6995 18.9492 5.05081C19.3005 5.40212 19.4985 5.87818 19.5 6.375V11.25H18Z" stroke="#000929" stroke-width="2" stroke-linecap="round" stroke-linejoin="round"/>
<path d="M2.25 19.5V14.25C2.25235 13.4551 2.56917 12.6934 3.13128 12.1313C3.69338 11.5692 4.45507 11.2523 5.25 11.25H18.75C19.5449 11.2523 20.3066 11.5692 20.8687 12.1313C21.4308 12.6934 21.7477 13.4551 21.75 14.25V19.5" stroke="#000929" stroke-width="2" stroke-linecap="round" stroke-linejoin="round"/>
<path d="M2.25 19.5V19.125C2.25087 18.8269 2.36967 18.5413 2.58046 18.3305C2.79125 18.1197 3.0769 18.0009 3.375 18H20.625C20.9231 18.0009 21.2087 18.1197 21.4195 18.3305C21.6303 18.5413 21.7491 18.8269 21.75 19.125V19.5" stroke="#000929" stroke-width="2" stroke-linecap="round" stroke-linejoin="round"/>
</g>
</svg>
