<svg width="64" height="64" viewBox="0 0 64 64" fill="none" xmlns="http://www.w3.org/2000/svg">
<path d="M10 49.295V5.99997C10 5.46954 9.7893 4.96083 9.41423 4.58576C9.03916 4.21069 8.53045 3.99997 8.00002 3.99997C7.46958 3.99997 6.96088 4.21069 6.5858 4.58576C6.21073 4.96083 6.00002 5.46954 6.00002 5.99997V49.295C4.38869 49.7754 3.00412 50.8197 2.09948 52.237C1.19485 53.6544 0.830604 55.35 1.07335 57.0138C1.3161 58.6776 2.14961 60.1984 3.42149 61.2982C4.69336 62.398 6.3186 63.0032 8.00002 63.0032C9.68143 63.0032 11.3067 62.398 12.5785 61.2982C13.8504 60.1984 14.6839 58.6776 14.9267 57.0138C15.1694 55.35 14.8052 53.6544 13.9005 52.237C12.9959 50.8197 11.6113 49.7754 10 49.295ZM63 7.99997C63.0006 6.70162 62.6401 5.42869 61.9588 4.32347C61.2775 3.21825 60.3022 2.32429 59.142 1.74153C57.9818 1.15876 56.6823 0.910151 55.389 1.02349C54.0956 1.13683 52.8592 1.60765 51.818 2.38332C50.7768 3.159 49.9719 4.20895 49.4932 5.41583C49.0145 6.6227 48.8809 7.93894 49.1073 9.21739C49.3337 10.4958 49.9112 11.6861 50.7752 12.6552C51.6392 13.6243 52.7558 14.334 54 14.705V58C54 58.5304 54.2107 59.0391 54.5858 59.4142C54.9609 59.7893 55.4696 60 56 60C56.5304 60 57.0392 59.7893 57.4142 59.4142C57.7893 59.0391 58 58.5304 58 58V14.705C59.4433 14.273 60.709 13.3876 61.6096 12.1799C62.5102 10.9722 62.9977 9.50649 63 7.99997ZM34 25.295V5.99997C34 5.46954 33.7893 4.96083 33.4142 4.58576C33.0392 4.21069 32.5305 3.99997 32 3.99997C31.4696 3.99997 30.9609 4.21069 30.5858 4.58576C30.2107 4.96083 30 5.46954 30 5.99997V25.295C28.5557 25.7251 27.2889 26.6101 26.3881 27.8182C25.4874 29.0263 25.0008 30.493 25.0008 32C25.0008 33.5069 25.4874 34.9736 26.3881 36.1818C27.2889 37.3899 28.5557 38.2749 30 38.705V58C30 58.5304 30.2107 59.0391 30.5858 59.4142C30.9609 59.7893 31.4696 60 32 60C32.5305 60 33.0392 59.7893 33.4142 59.4142C33.7893 59.0391 34 58.5304 34 58V38.705C35.4443 38.2749 36.7111 37.3899 37.6119 36.1818C38.5127 34.9736 38.9993 33.5069 38.9993 32C38.9993 30.493 38.5127 29.0263 37.6119 27.8182C36.7111 26.6101 35.4443 25.7251 34 25.295Z" fill="#226BD0"/>
</svg>
