<svg width="24" height="24" viewBox="0 0 24 24" fill="none" xmlns="http://www.w3.org/2000/svg">
<g filter="url(#filter0_d_0_805)">
<path d="M10.1454 19.25H13.0087C13.0421 19.25 13.0741 19.2367 13.0977 19.2132L13.919 18.3919C14.0098 18.301 14.133 18.25 14.2615 18.25C14.4449 18.25 14.6127 18.3537 14.6947 18.5178L15.0424 19.2132C15.0537 19.2357 15.0768 19.25 15.102 19.25H16.282C16.436 19.25 16.5608 19.1251 16.5608 18.9711C16.5608 17.8393 16.8244 16.7229 17.3305 15.7106C17.9791 14.4136 18.7681 13.1007 18.5358 11.5868L18.3538 10.4006C18.2964 10.0263 17.9745 9.75 17.5958 9.75H17.4579C17.1106 9.75 16.829 10.0316 16.829 10.3789V10.8738C16.829 10.9478 16.769 11.0079 16.6949 11.0079C16.6209 11.0079 16.5608 10.9478 16.5608 10.8738V9.75C16.5608 9.19772 16.1131 8.75 15.5608 8.75C15.0086 8.75 14.5608 9.19772 14.5608 9.75V10.8954C14.5608 11.0335 14.4489 11.1454 14.3108 11.1454C14.1728 11.1454 14.0608 11.0335 14.0608 10.8954V9.75C14.0608 9.19772 13.6131 8.75 13.0608 8.75C12.5086 8.75 12.0608 9.19772 12.0608 9.75V11.191C12.0608 11.2298 12.0518 11.2681 12.0344 11.3028C11.9423 11.487 11.6794 11.487 11.5872 11.3028C11.5699 11.2681 11.5608 11.2298 11.5608 11.191V6.25C11.5608 5.59827 11.0295 4.75 10.3108 4.75C9.59213 4.75 9.06084 5.59827 9.06084 6.25V12.4329C9.06084 12.608 8.91885 12.75 8.74371 12.75C8.63053 12.75 8.52621 12.6902 8.46831 12.5929C8.27582 12.2697 7.82804 11.5365 7.56084 11.25C7.41022 11.0885 7.10824 10.9731 6.81446 10.8941C6.35891 10.7716 5.89655 10.9964 5.63488 11.3889C5.3011 11.8896 5.36711 12.5563 5.79261 12.9818L6.61369 13.8028C6.90775 14.0969 7.1293 14.4554 7.26081 14.8499L7.31084 15C7.47525 15.4932 7.75223 15.9414 8.11985 16.309L9.41351 17.6027C9.82799 18.0171 10.0608 18.5793 10.0608 19.1655C10.0608 19.2122 10.0987 19.25 10.1454 19.25Z" fill="white"/>
<path d="M10.1454 19.25H13.0087C13.0421 19.25 13.0741 19.2367 13.0977 19.2132L13.919 18.3919C14.0098 18.301 14.133 18.25 14.2615 18.25C14.4449 18.25 14.6127 18.3537 14.6947 18.5178L15.0424 19.2132C15.0537 19.2357 15.0768 19.25 15.102 19.25H16.282C16.436 19.25 16.5608 19.1251 16.5608 18.9711C16.5608 17.8393 16.8244 16.7229 17.3305 15.7106C17.9791 14.4136 18.7681 13.1007 18.5358 11.5868L18.3538 10.4006C18.2964 10.0263 17.9745 9.75 17.5958 9.75H17.4579C17.1106 9.75 16.829 10.0316 16.829 10.3789V10.8738C16.829 10.9478 16.769 11.0079 16.6949 11.0079C16.6209 11.0079 16.5608 10.9478 16.5608 10.8738V9.75C16.5608 9.19772 16.1131 8.75 15.5608 8.75C15.0086 8.75 14.5608 9.19772 14.5608 9.75V10.8954C14.5608 11.0335 14.4489 11.1454 14.3108 11.1454C14.1728 11.1454 14.0608 11.0335 14.0608 10.8954V9.75C14.0608 9.19772 13.6131 8.75 13.0608 8.75C12.5086 8.75 12.0608 9.19772 12.0608 9.75V11.191C12.0608 11.2298 12.0518 11.2681 12.0344 11.3028C11.9423 11.487 11.6794 11.487 11.5872 11.3028C11.5699 11.2681 11.5608 11.2298 11.5608 11.191V6.25C11.5608 5.59827 11.0295 4.75 10.3108 4.75C9.59213 4.75 9.06084 5.59827 9.06084 6.25V12.4329C9.06084 12.608 8.91885 12.75 8.74371 12.75C8.63053 12.75 8.52621 12.6902 8.46831 12.5929C8.27582 12.2697 7.82804 11.5365 7.56084 11.25C7.41022 11.0885 7.10824 10.9731 6.81446 10.8941C6.35891 10.7716 5.89655 10.9964 5.63488 11.3889C5.3011 11.8896 5.36711 12.5563 5.79261 12.9818L6.61369 13.8028C6.90775 14.0969 7.1293 14.4554 7.26081 14.8499L7.31084 15C7.47525 15.4932 7.75223 15.9414 8.11985 16.309L9.41351 17.6027C9.82799 18.0171 10.0608 18.5793 10.0608 19.1655C10.0608 19.2122 10.0987 19.25 10.1454 19.25Z" stroke="#000929" stroke-width="0.8"/>
</g>
<line x1="11.9381" y1="13.1082" x2="11.9381" y2="16.9565" stroke="#000929" stroke-width="0.8"/>
<line x1="13.9117" y1="13.1082" x2="13.9117" y2="16.9565" stroke="#000929" stroke-width="0.8"/>
<line x1="15.9342" y1="13.1082" x2="15.9342" y2="16.9565" stroke="#000929" stroke-width="0.8"/>
<defs>
<filter id="filter0_d_0_805" x="1.22295" y="2.54998" width="19.5541" height="20.9" filterUnits="userSpaceOnUse" color-interpolation-filters="sRGB">
<feFlood flood-opacity="0" result="BackgroundImageFix"/>
<feColorMatrix in="SourceAlpha" type="matrix" values="0 0 0 0 0 0 0 0 0 0 0 0 0 0 0 0 0 0 127 0" result="hardAlpha"/>
<feOffset dx="-1" dy="1"/>
<feGaussianBlur stdDeviation="1.4"/>
<feColorMatrix type="matrix" values="0 0 0 0 0 0 0 0 0 0 0 0 0 0 0 0 0 0 0.2 0"/>
<feBlend mode="normal" in2="BackgroundImageFix" result="effect1_dropShadow_0_805"/>
<feBlend mode="normal" in="SourceGraphic" in2="effect1_dropShadow_0_805" result="shape"/>
</filter>
</defs>
</svg>
