<svg width="20" height="20" viewBox="0 0 20 20" fill="none" xmlns="http://www.w3.org/2000/svg">
<path d="M18.125 1.25H17.625L17.4688 1.34375H17.4062L17.25 1.46875H17.2188C17.0875 1.60367 16.9884 1.76649 16.9289 1.94505C16.8694 2.12362 16.851 2.31332 16.875 2.5V3.125H19.375V2.5C19.375 2.16848 19.2433 1.85054 19.0089 1.61612C18.7745 1.3817 18.4565 1.25 18.125 1.25ZM9.375 15.625H0.625V16.25C0.625 16.913 0.888392 17.5489 1.35723 18.0178C1.82607 18.4866 2.46196 18.75 3.125 18.75H10.3438C9.72378 18.0645 9.3788 17.1742 9.375 16.25V15.625Z" fill="#182E4E"/>
<path d="M5 2.5V14.375H10.625V16.25C10.625 16.913 10.8884 17.5489 11.3572 18.0178C11.8261 18.4866 12.462 18.75 13.125 18.75C13.788 18.75 14.4239 18.4866 14.8928 18.0178C15.3616 17.5489 15.625 16.913 15.625 16.25V1.78125L15.6875 1.625L15.75 1.4375L15.8438 1.28125H6.25C5.92382 1.28115 5.61053 1.40855 5.37698 1.63625C5.14344 1.86395 5.00815 2.17393 5 2.5ZM7.84375 3.125H12.8437C13.0095 3.125 13.1685 3.19085 13.2857 3.30806C13.4029 3.42527 13.4688 3.58424 13.4688 3.75C13.4688 3.91576 13.4029 4.07473 13.2857 4.19194C13.1685 4.30915 13.0095 4.375 12.8437 4.375H7.84375C7.67799 4.375 7.51902 4.30915 7.40181 4.19194C7.2846 4.07473 7.21875 3.91576 7.21875 3.75C7.21875 3.58424 7.2846 3.42527 7.40181 3.30806C7.51902 3.19085 7.67799 3.125 7.84375 3.125ZM7.84375 5.625H11.5937C11.7595 5.625 11.9185 5.69085 12.0357 5.80806C12.1529 5.92527 12.2187 6.08424 12.2187 6.25C12.2187 6.41576 12.1529 6.57473 12.0357 6.69194C11.9185 6.80915 11.7595 6.875 11.5937 6.875H7.84375C7.67799 6.875 7.51902 6.80915 7.40181 6.69194C7.2846 6.57473 7.21875 6.41576 7.21875 6.25C7.21875 6.08424 7.2846 5.92527 7.40181 5.80806C7.51902 5.69085 7.67799 5.625 7.84375 5.625ZM7.84375 8.125H12.8437C13.0095 8.125 13.1685 8.19085 13.2857 8.30806C13.4029 8.42527 13.4688 8.58424 13.4688 8.75C13.4688 8.91576 13.4029 9.07473 13.2857 9.19194C13.1685 9.30915 13.0095 9.375 12.8437 9.375H7.84375C7.67799 9.375 7.51902 9.30915 7.40181 9.19194C7.2846 9.07473 7.21875 8.91576 7.21875 8.75C7.21875 8.58424 7.2846 8.42527 7.40181 8.30806C7.51902 8.19085 7.67799 8.125 7.84375 8.125ZM7.84375 10.625H11.5937C11.7595 10.625 11.9185 10.6908 12.0357 10.8081C12.1529 10.9253 12.2187 11.0842 12.2187 11.25C12.2187 11.4158 12.1529 11.5747 12.0357 11.6919C11.9185 11.8092 11.7595 11.875 11.5937 11.875H7.84375C7.67799 11.875 7.51902 11.8092 7.40181 11.6919C7.2846 11.5747 7.21875 11.4158 7.21875 11.25C7.21875 11.0842 7.2846 10.9253 7.40181 10.8081C7.51902 10.6908 7.67799 10.625 7.84375 10.625Z" fill="#182E4E"/>
</svg>
