<svg width="20" height="16" viewBox="0 0 20 16" fill="none" xmlns="http://www.w3.org/2000/svg">
<path fill-rule="evenodd" clip-rule="evenodd" d="M0 0H20V16H0V0Z" fill="#F7F7FD"/>
<path fill-rule="evenodd" clip-rule="evenodd" d="M0 9.77771V11.111H20V9.77771H0Z" fill="#E31D1C"/>
<path fill-rule="evenodd" clip-rule="evenodd" d="M0 12.2223V13.5556H20V12.2223H0Z" fill="#E31D1C"/>
<path fill-rule="evenodd" clip-rule="evenodd" d="M0 4.88882V6.22216H20V4.88882H0Z" fill="#E31D1C"/>
<path fill-rule="evenodd" clip-rule="evenodd" d="M0 14.6665V15.9999H20V14.6665H0Z" fill="#E31D1C"/>
<path fill-rule="evenodd" clip-rule="evenodd" d="M0 7.33347V8.6668H20V7.33347H0Z" fill="#E31D1C"/>
<path fill-rule="evenodd" clip-rule="evenodd" d="M0 0V1.33333H20V0H0Z" fill="#E31D1C"/>
<path fill-rule="evenodd" clip-rule="evenodd" d="M0 2.44464V3.77797H20V2.44464H0Z" fill="#E31D1C"/>
<rect width="12.5" height="8.66667" fill="#2E42A5"/>
<path fill-rule="evenodd" clip-rule="evenodd" d="M1.07626 1.95926L0.622585 2.29852L0.77575 1.69478L0.372803 1.31217H0.899107L1.07563 0.819458L1.28261 1.31217H1.73127L1.37874 1.69478L1.51522 2.29852L1.07626 1.95926ZM3.57625 1.95926L3.12258 2.29852L3.27575 1.69478L2.8728 1.31217H3.3991L3.57562 0.819458L3.7826 1.31217H4.23126L3.87874 1.69478L4.01522 2.29852L3.57625 1.95926ZM5.62258 2.29852L6.07625 1.95926L6.51521 2.29852L6.37874 1.69478L6.73126 1.31217H6.2826L6.07562 0.819458L5.8991 1.31217H5.3728L5.77574 1.69478L5.62258 2.29852ZM8.57627 1.95926L8.12259 2.29852L8.27576 1.69478L7.87281 1.31217H8.39911L8.57563 0.819458L8.78261 1.31217H9.23127L8.87875 1.69478L9.01523 2.29852L8.57627 1.95926ZM0.622585 4.96505L1.07626 4.6258L1.51522 4.96505L1.37874 4.36131L1.73127 3.97871H1.28261L1.07563 3.48599L0.899107 3.97871H0.372803L0.77575 4.36131L0.622585 4.96505ZM3.57625 4.6258L3.12258 4.96505L3.27575 4.36131L2.8728 3.97871H3.3991L3.57562 3.48599L3.7826 3.97871H4.23126L3.87874 4.36131L4.01522 4.96505L3.57625 4.6258ZM5.62258 4.96505L6.07625 4.6258L6.51521 4.96505L6.37874 4.36131L6.73126 3.97871H6.2826L6.07562 3.48599L5.8991 3.97871H5.3728L5.77574 4.36131L5.62258 4.96505ZM8.57627 4.6258L8.12259 4.96505L8.27576 4.36131L7.87281 3.97871H8.39911L8.57563 3.48599L8.78261 3.97871H9.23127L8.87875 4.36131L9.01523 4.96505L8.57627 4.6258ZM0.622585 7.63198L1.07626 7.29272L1.51522 7.63198L1.37874 7.02824L1.73127 6.64563H1.28261L1.07563 6.15292L0.899107 6.64563H0.372803L0.77575 7.02824L0.622585 7.63198ZM3.57625 7.29272L3.12258 7.63198L3.27575 7.02824L2.8728 6.64563H3.3991L3.57562 6.15292L3.7826 6.64563H4.23126L3.87874 7.02824L4.01522 7.63198L3.57625 7.29272ZM5.62258 7.63198L6.07625 7.29272L6.51521 7.63198L6.37874 7.02824L6.73126 6.64563H6.2826L6.07562 6.15292L5.8991 6.64563H5.3728L5.77574 7.02824L5.62258 7.63198ZM8.57627 7.29272L8.12259 7.63198L8.27576 7.02824L7.87281 6.64563H8.39911L8.57563 6.15292L8.78261 6.64563H9.23127L8.87875 7.02824L9.01523 7.63198L8.57627 7.29272ZM10.6226 2.29852L11.0763 1.95926L11.5152 2.29852L11.3787 1.69478L11.7313 1.31217H11.2826L11.0756 0.819458L10.8991 1.31217H10.3728L10.7758 1.69478L10.6226 2.29852ZM11.0763 4.6258L10.6226 4.96505L10.7758 4.36131L10.3728 3.97871H10.8991L11.0756 3.48599L11.2826 3.97871H11.7313L11.3787 4.36131L11.5152 4.96505L11.0763 4.6258ZM10.6226 7.63198L11.0763 7.29272L11.5152 7.63198L11.3787 7.02824L11.7313 6.64563H11.2826L11.0756 6.15292L10.8991 6.64563H10.3728L10.7758 7.02824L10.6226 7.63198ZM2.32627 3.29272L1.87259 3.63198L2.02576 3.02824L1.62281 2.64563H2.14912L2.32563 2.15292L2.53262 2.64563H2.98128L2.62875 3.02824L2.76523 3.63198L2.32627 3.29272ZM4.37259 3.63198L4.82626 3.29272L5.26522 3.63198L5.12875 3.02824L5.48127 2.64563H5.03261L4.82563 2.15292L4.64911 2.64563H4.12281L4.52575 3.02824L4.37259 3.63198ZM7.32626 3.29272L6.87258 3.63198L7.02575 3.02824L6.6228 2.64563H7.14911L7.32562 2.15292L7.53261 2.64563H7.98127L7.62874 3.02824L7.76522 3.63198L7.32626 3.29272ZM1.87259 6.29852L2.32627 5.95926L2.76523 6.29852L2.62875 5.69478L2.98128 5.31217H2.53262L2.32563 4.81946L2.14912 5.31217H1.62281L2.02576 5.69478L1.87259 6.29852ZM4.82626 5.95926L4.37259 6.29852L4.52575 5.69478L4.12281 5.31217H4.64911L4.82563 4.81946L5.03261 5.31217H5.48127L5.12875 5.69478L5.26522 6.29852L4.82626 5.95926ZM6.87258 6.29852L7.32626 5.95926L7.76522 6.29852L7.62874 5.69478L7.98127 5.31217H7.53261L7.32562 4.81946L7.14911 5.31217H6.6228L7.02575 5.69478L6.87258 6.29852ZM9.82626 3.29272L9.37258 3.63198L9.52575 3.02824L9.1228 2.64563H9.6491L9.82562 2.15292L10.0326 2.64563H10.4813L10.1287 3.02824L10.2652 3.63198L9.82626 3.29272ZM9.37258 6.29852L9.82626 5.95926L10.2652 6.29852L10.1287 5.69478L10.4813 5.31217H10.0326L9.82562 4.81946L9.6491 5.31217H9.1228L9.52575 5.69478L9.37258 6.29852Z" fill="#F7F7FD"/>
</svg>
